<svg xmlns="http://www.w3.org/2000/svg" width="74" height="36" viewBox="0 0 74 36">
    <g fill="none">
        <path fill="#303F9F" d="M17.758 25.498L13.107 20.984 13.101 6.566 8.706 6.566 8.706 8.405 11.26 8.405 11.248 21.765 17.758 28.214 19.565 26.487z" transform="translate(3.778 4)"/>
        <path fill="#FFF" d="M17.758 25.498L13.107 20.984 13.101 6.566 6.546 6.567 6.539 20.984 1.889 25.498 0.084 26.489 1.889 28.214 8.399 21.765 8.388 8.406 11.26 8.405 11.248 21.765 17.758 28.214 19.565 26.487z" transform="translate(3.778 4)"/>
        <path fill="#FFF" d="M.083.026L.083 26.487 1.889 28.214 1.889 1.831 17.758 1.831 17.758 28.214 19.565 26.487 19.565.026zM23.797 7.41V.908h.977c.436 0 .782.034 1.04.101.262.068.482.182.662.342.183.165.327.372.434.619.11.25.163.502.163.758 0 .466-.178.86-.535 1.183.345.118.618.324.817.62.202.292.303.631.303 1.019 0 .508-.18.938-.538 1.289-.217.216-.46.366-.73.45-.295.082-.663.122-1.107.122h-1.486zm.982-3.71h.307c.366 0 .633-.08.803-.242.17-.162.255-.4.255-.714 0-.306-.087-.539-.26-.697-.175-.159-.428-.238-.759-.238h-.345v1.89h-.001zm0 2.788h.607c.443 0 .769-.087.977-.26.219-.189.328-.428.328-.717 0-.28-.105-.517-.316-.708-.205-.188-.571-.282-1.099-.282h-.497v1.967zM28.574 1.602c0-.165.06-.309.18-.43.122-.12.266-.18.435-.18.17 0 .317.06.438.18.12.119.18.263.18.435 0 .17-.06.317-.18.438-.118.12-.263.18-.434.18-.171 0-.317-.06-.438-.18-.12-.121-.181-.269-.181-.443zm1.09 1.706v4.103h-.948V3.308h.948zM31.812.296v3.488c.38-.393.81-.59 1.29-.59.552 0 1.013.207 1.381.62.368.41.552.92.552 1.533 0 .632-.186 1.154-.557 1.567-.368.41-.832.615-1.394.615-.475 0-.899-.182-1.273-.548v.43h-.947V.296h.948zm2.254 5.093c0-.393-.107-.713-.32-.96-.216-.253-.487-.38-.813-.38-.348 0-.632.123-.851.367-.217.242-.324.556-.324.944 0 .399.106.717.32.956.213.244.494.366.842.366.328 0 .6-.122.817-.366.22-.248.329-.556.329-.927zM36.985.296L36.985 7.41 36.037 7.41 36.037.296zM38.042 1.602c0-.165.06-.309.18-.43.122-.12.266-.18.435-.18.171 0 .317.06.438.18.12.119.181.263.181.435 0 .17-.06.317-.181.438-.118.12-.262.18-.434.18-.171 0-.317-.06-.438-.18-.12-.121-.181-.269-.181-.443zm1.09 1.706v4.103h-.947V3.308h.948zM40.14 5.33c0-.592.211-1.097.635-1.512.424-.416.94-.624 1.55-.624.612 0 1.132.21 1.56.628.42.419.63.932.63 1.542 0 .615-.21 1.13-.635 1.546-.427.412-.95.619-1.57.619-.616 0-1.13-.211-1.547-.632-.416-.416-.624-.938-.624-1.567zm.968.017c0 .41.11.734.329.973.224.241.52.362.888.362.37 0 .667-.12.888-.358.222-.239.333-.557.333-.956 0-.399-.111-.718-.333-.956-.224-.242-.52-.362-.888-.362-.362 0-.656.12-.88.362-.225.241-.337.553-.337.935zM46.546 4.193L46.546 7.411 45.598 7.411 45.598 4.193 45.193 4.193 45.193 3.308 45.598 3.308 45.598 1.805 46.546 1.805 46.546 3.308 47.283 3.308 47.283 4.193zM51.739 5.583h-2.94c.025.337.135.605.328.804.194.197.442.295.746.295.235 0 .43-.056.585-.169.152-.112.324-.32.518-.623l.801.447c-.124.21-.254.39-.392.541-.138.15-.285.274-.442.37-.157.097-.327.168-.51.213-.183.045-.38.068-.594.068-.612 0-1.104-.197-1.474-.59-.37-.396-.556-.921-.556-1.575 0-.649.18-1.174.539-1.576.362-.396.842-.594 1.44-.594.604 0 1.081.193 1.432.577.348.382.522.912.522 1.588l-.003.224zm-.973-.775c-.132-.506-.451-.758-.957-.758-.115 0-.223.017-.324.052-.1.035-.193.086-.276.152-.082.066-.153.145-.212.238s-.104.198-.135.316h1.904zM55.967 3.485v1.26c-.216-.264-.41-.446-.58-.544-.17-.101-.368-.151-.595-.151-.356 0-.653.125-.889.374-.235.25-.353.563-.353.94 0 .384.114.7.34.947.231.247.525.37.881.37.228 0 .429-.048.602-.146.169-.096.367-.281.594-.556v1.25c-.384.2-.769.3-1.153.3-.635 0-1.166-.205-1.592-.615-.427-.413-.64-.926-.64-1.538s.216-1.128.648-1.55c.432-.42.963-.632 1.592-.632.404 0 .786.097 1.145.291zM59.91 3.308h.951v4.103h-.951v-.43c-.391.365-.81.548-1.26.548-.567 0-1.036-.205-1.407-.615-.368-.419-.551-.941-.551-1.567 0-.615.184-1.128.551-1.538.368-.41.828-.615 1.382-.615.477 0 .906.197 1.285.59v-.476zm-2.25 2.039c0 .393.106.713.317.96.216.25.489.375.816.375.351 0 .635-.121.852-.363.216-.25.324-.567.324-.952s-.108-.702-.324-.952c-.217-.244-.497-.366-.843-.366-.325 0-.597.123-.816.37-.217.251-.325.56-.325.928z" transform="translate(3.778 4)"/>
        <g fill="#FFF">
            <path d="M.034 7.114L.034.168 4.776 5.13 4.776.611 5.758.611 5.758 7.51 1.015 2.561 1.015 7.114zM10.244 3.012h.952v4.102h-.952v-.43c-.39.366-.81.549-1.26.549-.567 0-1.035-.205-1.406-.615-.368-.418-.552-.94-.552-1.567 0-.615.184-1.127.552-1.538.368-.41.828-.614 1.382-.614.477 0 .905.196 1.285.59l-.001-.477zM7.994 5.05c0 .393.106.714.317.96.216.25.49.375.817.375.35 0 .634-.12.851-.362.216-.25.324-.567.324-.952 0-.384-.108-.702-.324-.952-.216-.244-.497-.366-.842-.366-.326 0-.598.123-.817.37-.217.25-.325.56-.325.927zM15.585 3.188v1.26c-.216-.264-.41-.445-.582-.544-.168-.1-.367-.151-.594-.151-.356 0-.653.125-.888.375-.236.25-.354.563-.354.939 0 .385.114.7.341.948.23.247.524.37.88.37.228 0 .429-.049.603-.148.168-.095.366-.28.594-.556v1.25c-.385.2-.77.3-1.154.3-.634 0-1.165-.205-1.592-.615-.427-.413-.64-.925-.64-1.538 0-.612.216-1.129.648-1.55.433-.421.963-.632 1.592-.632.404.002.786.098 1.146.292zM16.36 1.306c0-.166.06-.31.18-.43.122-.12.266-.181.435-.181.17 0 .317.06.438.181.12.118.18.263.18.434 0 .171-.06.317-.18.438-.118.12-.263.18-.434.18-.171 0-.317-.06-.438-.18-.12-.12-.181-.268-.181-.442zm1.09 1.706v4.102h-.947V3.012h.948zM18.457 5.033c0-.592.212-1.096.636-1.512.424-.416.94-.623 1.55-.623.612 0 1.131.209 1.559.627.42.419.632.933.632 1.542 0 .614-.212 1.13-.636 1.546-.427.412-.95.619-1.571.619-.615 0-1.13-.21-1.546-.632-.416-.415-.624-.938-.624-1.567zm.969.017c0 .41.11.734.329.973.224.242.52.362.888.362.37 0 .667-.119.888-.358.222-.238.332-.557.332-.956 0-.399-.11-.717-.332-.956-.224-.242-.52-.362-.888-.362-.363 0-.656.12-.88.362-.225.242-.337.553-.337.935zM23.836 3.012h.952v.379c.332-.329.704-.493 1.12-.493.477 0 .85.15 1.116.45.23.256.345.673.345 1.252v2.514h-.951V4.826c0-.404-.056-.683-.169-.837-.11-.157-.308-.236-.597-.236-.315 0-.538.104-.67.311-.13.205-.194.563-.194 1.073v1.977h-.952V3.012zM31.59 3.012h.952v4.102h-.952v-.43c-.39.366-.81.549-1.26.549-.567 0-1.035-.205-1.406-.615-.368-.418-.552-.94-.552-1.567 0-.615.185-1.127.552-1.538.368-.41.828-.614 1.382-.614.477 0 .906.196 1.285.59v-.477zM29.341 5.05c0 .393.105.714.316.96.216.25.489.375.816.375.352 0 .635-.12.852-.362.216-.25.324-.567.324-.952 0-.384-.108-.702-.324-.952-.216-.244-.497-.366-.842-.366-.326 0-.598.123-.817.37-.217.25-.325.56-.325.927zM34.686 0L34.686 7.114 33.738 7.114 33.738 0z" transform="translate(3.778 4) translate(23.763 9.273)"/>
        </g>
        <g fill="#FFF">
            <path d="M2.286.115h.606v4.527h-.606v-.273c-.238.232-.507.348-.807.348-.357 0-.654-.13-.89-.392C.355 4.06.238 3.727.238 3.33c0-.39.117-.715.351-.976.233-.263.525-.394.876-.394.306 0 .58.125.82.375V.114zM.854 3.328c0 .25.067.454.2.611.139.16.312.239.52.239.224 0 .405-.077.542-.23.138-.16.207-.361.207-.607 0-.245-.069-.446-.207-.605-.138-.156-.316-.234-.536-.234-.208 0-.38.079-.52.236-.137.16-.206.356-.206.59zM6.03 3.478H4.16c.016.215.085.386.209.512.123.126.281.188.474.188.151 0 .275-.036.373-.107.097-.072.206-.204.33-.397l.51.284c-.08.134-.163.249-.25.345-.087.095-.181.174-.281.235-.1.062-.209.107-.325.136-.116.029-.242.042-.378.042-.39 0-.702-.125-.938-.375-.235-.252-.354-.586-.354-1.002 0-.413.115-.747.344-1.003.23-.251.536-.378.916-.378.384 0 .688.123.912.368.222.242.332.58.332 1.01l-.004.142zm-.619-.493c-.084-.321-.286-.482-.609-.482-.073 0-.142.011-.206.034-.065.022-.123.054-.175.096-.053.042-.098.093-.136.151-.037.06-.066.126-.086.201h1.212z" transform="translate(3.778 4) translate(60.567 8.984)"/>
        </g>
        <g fill="#FFF">
            <path d="M5.13 1.241v1.161c-.567-.475-1.154-.712-1.76-.712-.67 0-1.232.24-1.69.72-.46.478-.69 1.062-.69 1.753 0 .682.23 1.258.69 1.727.461.468 1.025.703 1.694.703.345 0 .639-.056.88-.169.135-.055.274-.131.419-.227.144-.095.296-.21.457-.345v1.186c-.562.319-1.152.478-1.77.478-.929 0-1.722-.325-2.38-.973C.327 5.888 0 5.1 0 4.176 0 3.348.272 2.61.82 1.96 1.495 1.166 2.367.77 3.437.77 4.02.767 4.585.925 5.13 1.24zM5.993 5.317c0-.593.212-1.097.636-1.512.424-.416.94-.623 1.55-.623.612 0 1.131.21 1.559.627.42.418.632.933.632 1.542 0 .614-.212 1.13-.636 1.545-.427.413-.95.62-1.571.62-.615 0-1.13-.211-1.546-.632-.416-.416-.624-.938-.624-1.567zm.969.016c0 .41.11.734.329.973.224.241.52.362.888.362.37 0 .667-.119.888-.358.222-.238.333-.557.333-.956 0-.398-.111-.718-.333-.956-.224-.242-.52-.363-.888-.363-.362 0-.656.121-.88.363-.225.242-.337.554-.337.935zM12.32.284L12.32 7.398 11.372 7.398 11.372.284zM13.326 5.317c0-.593.212-1.097.636-1.512.424-.416.94-.623 1.55-.623.612 0 1.131.21 1.558.627.422.418.632.933.632 1.542 0 .614-.211 1.13-.635 1.545-.427.413-.95.62-1.571.62-.615 0-1.13-.211-1.546-.632-.416-.416-.624-.938-.624-1.567zm.969.016c0 .41.11.734.328.973.224.241.521.362.889.362.37 0 .667-.119.888-.358.222-.238.333-.557.333-.956 0-.398-.112-.718-.333-.956-.224-.242-.52-.363-.888-.363-.363 0-.656.121-.88.363-.225.242-.337.554-.337.935zM18.705 3.295h.948v.379c.182-.19.338-.32.467-.387.138-.07.31-.105.518-.105.463 0 .83.202 1.099.606.298-.404.7-.606 1.21-.606.923 0 1.385.56 1.385 1.68v2.536h-.952V5.12c0-.393-.048-.67-.143-.834-.099-.166-.26-.248-.485-.248-.26 0-.451.098-.57.295-.12.197-.18.512-.18.948V7.4h-.951V5.132c0-.73-.211-1.095-.632-1.095-.267 0-.462.1-.584.3-.122.199-.183.513-.183.943v2.118h-.948V3.295zM26.475.284V3.77c.38-.392.81-.59 1.29-.59.552 0 1.013.207 1.381.62.369.41.552.921.552 1.533 0 .632-.186 1.154-.556 1.567-.369.41-.833.615-1.395.615-.475 0-.899-.183-1.272-.548v.429h-.948V.284h.948zm2.254 5.092c0-.393-.106-.713-.32-.96-.216-.253-.487-.38-.813-.38-.348 0-.632.123-.851.367-.217.242-.324.556-.324.944 0 .399.106.718.32.956.213.245.494.367.842.367.328 0 .6-.122.817-.367.22-.248.329-.557.329-.927zM30.557 1.589c0-.166.06-.309.18-.43.122-.12.266-.18.435-.18.17 0 .317.06.438.18.12.118.181.263.181.434 0 .172-.06.318-.18.438-.119.121-.263.182-.435.182-.171 0-.317-.06-.438-.182-.12-.12-.181-.268-.181-.442zm1.09 1.706v4.102H30.7V3.295h.948zM35.872 3.295h.952v4.102h-.952v-.43c-.39.366-.81.549-1.26.549-.567 0-1.036-.205-1.406-.615-.368-.418-.552-.94-.552-1.567 0-.615.185-1.127.552-1.538.368-.41.828-.614 1.382-.614.477 0 .905.197 1.285.59v-.477zm-2.249 2.038c0 .393.105.714.316.96.216.25.489.375.817.375.351 0 .634-.12.851-.362.216-.25.324-.567.324-.952 0-.384-.108-.702-.324-.952-.216-.244-.497-.367-.842-.367-.326 0-.598.124-.817.371-.217.25-.325.56-.325.927z" transform="translate(3.778 4) translate(23.473 17.967)"/>
        </g>
    </g>
</svg>
