<svg xmlns="http://www.w3.org/2000/svg" width="181" height="37" viewBox="0 0 181 37">
    <g fill="#FEFEFE" fill-rule="evenodd">
        <path d="M.003.003L0 35.985l180.906-.002.003-31.485V0L.003.003zm113.064 34.979l.005-33.983h66.837l-.002 33.984-66.84-.001zm-77.088.003l.003-33.983h76.084l-.003 33.984-76.084-.001zm-34.98 0l.004-33.983h33.976l-.005 33.984L1 34.985z" transform="translate(0 .5)"/>
        <g>
            <path d="M22.338 9.67h-.547l-.012.019-.034.02.004.045v.023l.11 1.285v2.603c0 .13-.065.682-.106 1.048-.024.214-.039.336-.039.37-.08 1.403-.724 3.553-1.975 5.001-.002.004-.167.088-.621.298-.416.19-1.35.267-2.193.061-.064-.015-.133-.042-.203-.072.077-.092.247-.302.606-.79.15-.206.402-.575.68-1.051.306-.058.607-.153.875-.282 2.035-.988 2.413-6.688 2.414-6.748l-.133-.008c-.002.057-.373 5.688-2.338 6.63-.226.11-.474.202-.727.255.33-.58.687-1.304.962-2.12.172-.503.298-1.197.393-1.917.824-.953 1.225-2.413 1.277-2.604l-.065-.023-.066-.011c-.048.183-.403 1.471-1.118 2.394.098-.823.153-1.655.185-2.276.683-.556 1.308-1.216 1.316-1.224l-.1-.095c-.007.011-.57.606-1.208 1.136.017-.362.023-.622.027-.743l1.83-1.232-.076-.11-3.699 2.49c.002-.046.004-.096.008-.142l3.6-2.42-.005-.008c.233-.126.473-.297.513-.587.307-.115.614-.221.923-.336.269-.099.535-.194.806-.296-.198.258-1.113 1.26-1.264 1.417zm-5.695 11.97c-.94 0-2.043-.347-2.95-.919-.096-.064-.164-.091-.203-.11-.01-.004-.015-.004-.019-.008.012.008.027.027.027.054h-.134v.01l.008.032h-.064c.514-.42 1.086-.942 1.62-1.495.221.221 1.232 1.19 1.967 1.369.343.084.732.126 1.1.126.467 0 .9-.07 1.178-.195.126-.057.227-.107.311-.145-.75.762-1.691 1.28-2.841 1.28zm-3.08-.408c.053.134.109.267.164.4h-.945c-.02-.167-.043-.335-.062-.484.134-.095.275-.202.424-.316h.266c.029.087.065.183.092.247l.06.153zm.598 1.334h-1.254c-.034-.244-.072-.526-.106-.8h.983c.112.266.236.534.377.8zm.343.583c-.045.004-.1.004-.155.004-.216.004-.373.004-.492.007-.004 0-.024.004-.046.004-.096.004-.164.008-.21.016-.149.015-.326.041-.42.08-.053.019-.097.038-.13.06l-.012-.03-.018-.049c-.019-.042-.053-.252-.095-.542h1.306c.084.15.173.301.272.45zm-.82.782c-.003.038-.019.069-.05.095-.15.134-.555.134-.666.126h-.034l-.164-.027c-.02-.008-.04-.011-.057-.015-.008-.072-.02-.175-.03-.29h.923c.008.008.014.008.021.016.023.015.056.05.058.095zm-.787.904c-.147.144-.545.144-.674.14h-.061c-.266 0-.664-.003-.836-.22h1.615c-.007.03-.02.056-.044.08zm-.143-.576c.012.004.023.007.035.007.023.004.046.008.07.008.002.023.01.053.021.11-.003-.003-.011-.01-.019-.015-.038-.03-.072-.068-.107-.11zm-1.479.362v-.008c.01-.042.042-.08.076-.118l.03-.03c.014-.02.04-.038.063-.062.037-.03.083-.068.128-.118h1.045c.004.016.008.027.012.034.049.073.104.115.15.15.025.022.048.038.063.06l.01.012c.025.027.044.053.059.08h-1.636zm.181-.412c-.03.034-.063.06-.093.092l-.046.038.013-.096c.04-.008.086-.019.124-.03l.002-.004zm-.203-.088c-.054.012-.111.02-.454.004-.084-.008-.286-.069-.315-.125 0-.054.029-.088.06-.114.106-.073.194-.107.304-.146.044-.019.092-.037.143-.06.006 0 .03-.012.058-.027.137-.065.163-.134.209-.26l.02-.05c.056-.148.28-1.688.345-2.153l.091.065c-.054.926-.146 2.322-.204 2.783-.017.007-.044.022-.105.042-.04.014-.092.03-.138.037l-.014.004zm-.24-.602l-.025.016c-.004 0-.006 0-.01.003-.063.03-.122.057-.18.073-.087.038-.175.076-.266.13l.113-.359c.058.015.127.034.186.06.103.035.157.062.181.077zm-.538-.312c-.084-.016-.18-.023-.301-.023h-.427c-.012 0-.046-.004-.088-.012.546-.82.936-1.803 1.224-2.55.217.183.427.343.617.484-.118.835-.306 2.081-.346 2.196l-.022.042-.028.076c-.048-.035-.12-.069-.225-.107-.176-.064-.397-.106-.404-.106zM7.657 21.64c-.99 0-2.009-.462-2.801-1.254l.258.118c.279.126.713.195 1.179.195.368 0 .755-.042 1.097-.126.737-.18 1.745-1.144 1.972-1.365.452.469.93.918 1.38 1.296-1.17.75-2.21 1.136-3.085 1.136zm-3.16-1.651c-1.044-1.303-1.435-2.535-1.7-3.682-.064-.286-.353-2.044-.354-2.635v-2.607l.119-1.38h-.626c-.118-.088-.793-.865-1.288-1.441l1.774.633c.025.015.036.076.051.134.014.068.031.148.083.202.091.103.208.164.322.232.017.011.03.019.05.027l-.005.007 3.618 2.436c.004.046.004.088.006.134L2.83 9.552l-.074.11 1.83 1.236c.003.117.01.377.026.743-.637-.53-1.2-1.129-1.209-1.14l-.097.095c.01.008.632.668 1.316 1.224.032.621.09 1.456.184 2.28-.716-.927-1.07-2.215-1.116-2.398h-.004l-.128.034c.052.194.451 1.654 1.279 2.608.093.72.217 1.41.388 1.914.277.815.635 1.539.965 2.119-.253-.054-.5-.145-.728-.256-1.965-.942-2.335-6.572-2.34-6.629l-.134.008c.004.06.381 5.76 2.416 6.747.26.126.56.221.872.274.28.48.531.85.684 1.06.354.488.526.698.606.79-.073.03-.141.057-.206.072-.843.206-1.776.13-2.192-.062-.297-.137-.469-.22-.555-.262-.038-.046-.08-.084-.116-.13zm1.644-8.71l.044.228-.341-.228h.297zm-.061-.462c.007.092.017.187.028.275l.008.05h-.474l-.486-.325h.924zm-.016-.464c0 .102.004.212.01.323H5.09c-.005-.087-.015-.202-.022-.323h.996zm.008-.465c-.004.09-.007.201-.008.33H5.06c-.006-.102-.01-.201-.01-.285v-.045h1.022zm-.998-.611c.005-.114.013-.22.018-.297l.403.297h-.421zm.598.133l.408.302-.004.034H5.05c.004-.11.009-.225.015-.336h.607zM3.011 7.608c-.137.01-.278.019-.37-.05-.057-.068-.72-.857-1.14-1.365.603.26 1.56.637 1.651.675.04.027.046.1.056.172.005.087.017.186.089.248 1.003.865 2.123 1.688 3.28 2.527l-.003.095L3.44 7.589l-.078.106 1.601 1.19c-.011.14-.05.686-.045 1.048 0 .236.023.56.038.747L3.149 9.464v-.568l.11-1.296-.068-.004c-.058 0-.12.004-.18.012zM1.33 5.83c-.03 0-.423.19-.454.19-.034 0-.015-.014-.052-.014V5.9c0-.172.514-.362.521-.362.63.068 1.198-.496 1.579-.702.044-.022.061-.069.087-.114-.015.008-.04-.004-.076-.004-.492 0-1.05.644-1.334.644-.03 0-.084-.023-.162-.05.273-.388.696-.498 1-.742.36-.298.483-.664.872-.934 1.13-.778 2.26-1.62 3.387-2.193.39-.194.793-.388 1.187-.548.449-.187.972-.347 1.428-.347.306 0 1.427.13 1.427.75 0 .18-.037.283-.088.348-.084.02-.164.05-.214.118-.118.027-.224.05-.224.24 0 .031.013.065.026.114-.217.122-.347.171-.347.355 0 .038.132.294.132.298 0 .14-.162.175-.208.175-.097 0-.137 0-.137-.1 0-.103.172-.16.172-.262 0-.062-.283-.146-.283-.191 0-.237.48-.141.48-.335 0-.225-.407-.07-.506-.115.05-.137.388-.221.388-.389 0-.114-.182-.076-.217-.107.035-.022.077-.038.11-.038s.289.038.322.038c.125 0 .243.012.243-.148 0-.1-.017-.141-.117-.141-.126 0-.207.175-.295.175-.147 0-.52-.404-.718-.404-.121 0-.121.141-.121.183 0 .118.3.167.336.195-.057.072-.164.118-.24.118-.218 0-.21-.336-.477-.336-.08 0-.21.072-.21.118 0 .165.19.08.19.225 0 .267-.567.4-.618.4-.31 0-.037-.5-.445-.5-.352 0-.6.249-.989.459-.3.171-.724.171-.905.56.087.065.074.072.148.072.218 0 1.258-.739 1.438-.739h.064c0 .026 0 .026.031.03-.057.068-.365.176-.365.302 0 .076.067.068.073.068.034 0 .261-.068.408-.091-.078.156-.213.289-.293.41.043.02.104.031.139.031.156 0 .313-.145.44-.145h.172c-.117.268-.407.195-.603.241-.238.057-.5.153-.76.198 0 0-.02-.007-.02-.045 0-.1.432-.26.496-.317-.042-.053-.11-.053-.175-.053-.279 0-.713.5-.892.785-.118.194-.439.194-.622.26h-.053c.027-.13.414-.477.414-.538 0-.092-.163-.092-.17-.092-.277 0-.591.412-.87.522-.017-.014-.024-.019-.024-.049 0-.183.405-.225.405-.43 0-.088-.06-.069-.089-.069-.15 0-.31.08-.352.27-.012.054-.052.115-.052.187.006.736-1.685.621-1.685 1.25 0 .073.09.038.109.038.59 0 1.498-.884 1.713-.884.098 0 .143.053.143.126 0 .282-.736.217-.83.648-.066.038-.436-.004-.436.233 0 .037.012.042.033.068h.314c.366-.004.961-.686 1.274-.922-.008.064-.023.107-.023.14 0 .054.034.085.067.085.246 0 .515-.416.787-.614.347-.251.768-.358 1.151-.515.023.016.025.012.025.046 0 .042-.147.145-.147.221 0 .095.054.08.103.08.157 0 .311-.24.435-.24.107 0 .122.08.122.14 0 .348-.523.47-.66.829-.03.09.006.239-.08.239-.034 0-.095-.03-.129-.03-.221 0-.263.26-.511.396-.073.042-.172-.018-.24.023-.138.076-.546.393-.712.393-.036 0-.204-.073-.238-.073 0 0-.625.378-.911.378-.174 0-.145-.11-.282-.11-.052 0-1.373.704-1.668.704-.094 0-.088.008-.23-.084.211-.114.51-.198.674-.484v-.045s.019-.004-.015-.004c-.069 0-1.146.682-1.354.682-.036 0-.102-.042-.137-.042zm10.126-3.853c.084 0 .317.114.317.247v.248c0 .164.429.542.537.674-.102.115-.171.256-.152.397-.023.004-.027.015-.05.03-.102-.137-.246-.125-.345-.125 0-.222-.149-.747-.528-.747-.034 0-.217.026-.248.026-.034 0-.244-.133-.37-.213.07-.06.052-.1.052-.164 0-.027-.029-.115-.036-.16l.007-.027c.058-.034.808-.186.816-.186zm1.12.868c-.033.046-.132.123-.138.18v.011c.032-.042.143-.091.177-.091.39 0 .516.381.515.636 0 .187-.057.362-.178.545-.04-.075-.064-.144-.081-.202-.06.077-.01.207-.026.286l-.043.038c-.046-.06-.088-.114-.115-.163-.026.068-.024.213-.112.296-.025-.08-.048-.152-.078-.213-.05.068-.036.213-.139.294-.022-.092-.048-.184-.061-.27-.032.094-.029.228-.166.35-.023-.107-.05-.21-.065-.294-.013.046-.026.111-.065.172-.078-.096-.17-.217-.282-.343.082-.076.065-.1.065-.134s-.038-.125-.038-.16c0-.034.069-.133.095-.187 0 0 .008-.007-.023-.007-.034 0-.095.053-.14.08-.077-.084-.17-.175-.272-.267.065-.042.129-.065.18-.095-.048-.015-.13-.042-.162-.042-.036 0-.092.027-.147.034.023-.038.185-.21.24-.21.134 0 .118.405.218.424.175.045.293.17.366.17.186 0 .156-.125.156-.217 0-.083.12-.308.12-.316 0-.03-.118-.186-.188-.293.068-.012.121-.012.388-.012zm.752 1.415c.057.084.122.224.122.316 0 .084-.1.317-.22.317-.031 0-.058-.043-.087-.077.067-.187.117-.37.185-.556zm-.333-2.676c0-.164.086-.439.316-.572.124-.068 1.504-.301 1.86-.301.25 0 .489.023.744.137.223.107 5.263 3 5.263 3.652 0 .027-.042.13-.042.16 0 .008 1.186.496 1.186.717 0 .072-.145.08-.164.08-.157 0-.87-.56-1.196-.656 0 0-.192-.008-.2 0 .023.027.076.111.126.141.37.214.806.637 1.178.671.16.016.734.107.925.324-.029 0-.065.004-.119.024l-.303.125c-.404-.137-1.55-.774-1.64-.816.005 0-.007.008-.007.042 0 .251.634.465.711.507-.032.027-.077.054-.112.054-.145 0-.536-.176-.644-.226-.075-.034-.174.004-.252-.011-.052-.004-.374-.11-.52-.195-.003-.08-.008-.175-.014-.251.008-.019.016-.038.02-.053.144.069.224.141.343.141h.216s.01 0 .01-.023c0-.107-.303-.141-.33-.156-.123-.08-.241-.202-.36-.286 0 0-.078-.004-.09.003.02.039.05.107.088.172l-.026.042-.052.069c0 .004-.005.01-.013.019-.044.06-.086.118-.126.167-.038-.004-.097-.015-.126-.015-.133 0-.055.107-.22.107-.29 0-.865-.446-.961-.446-.052 0-.165.069-.214.069-.229 0-.656-.214-.69-.516-.05.092-.09.085-.126.085-.29 0-.461-.523-.793-.503.015-.508-.663-.592-.663-1.03 0-.068.057-.118.1-.118.144 0 .335.24.456.24.082 0 .1-.027.1-.072.001-.102-.144-.16-.144-.214 0-.03.016-.06.035-.08.292.153.562.302.856.404.404.137.741.782 1.056.782.095 0 .069-.091.069-.1 0-.034-.016-.087-.023-.14.522.564.918.964 1.41.964.099 0 .195.011.195-.088 0-.232-.405-.16-.439-.232.208-.34-.808-.316-.808-.652 0-.095.078-.13.14-.13.213 0 1.198.927 1.694.927.06 0 .11.026.11-.065 0-.411-.74-.51-.892-.583-.175-.088-.442-.15-.612-.366-.01-.012-.036-.039-.045-.054-.134-.286-.044-.716-.502-.716-.063 0-.095.03-.095.076 0 .165.402.297.402.396 0 .034-.014.05-.02.088-.241-.16-.615-.545-.874-.545-.042 0-.152.03-.152.08 0 .096.364.458.396.545-.227-.053-.515-.034-.663-.259-.22-.332-.606-.812-.917-.812-.055 0-.102.027-.15.053.144.095.317.19.484.317v.06c-.374-.076-.784-.209-1.169-.263-.063-.007-.135-.083-.197-.148v-.054h.104c.13-.003.385.156.507.156.03 0 .091-.01.139-.033-.032-.123-.248-.263-.28-.412h.076c.034 0 .291.095.324.095.072 0 .067-.034.067-.057 0-.126-.318-.27-.345-.29-.004-.015.03-.053.063-.053.3 0 1.156.75 1.444.75.044 0 .155-.01.155-.06 0-.312-.724-.484-.826-.541-.375-.198-.717-.511-1.107-.511-.332 0-.06.492-.391.492-.09 0-.615-.126-.615-.409 0-.106.198-.076.198-.236 0-.065-.252-.107-.262-.107-.171 0-.222.32-.425.32-.07 0-.119-.003-.24-.117.114-.077.338-.031.338-.218 0-.102-.048-.148-.132-.148-.183 0-.575.377-.693.377-.037 0-.264-.065-.298-.065-.08 0-.21.076-.21.153 0 .034.008.045.042.045h.345c.037 0 .09.031.132.054 0 .198.21.293.21.389 0 .091-.338-.004-.338.183 0 .19.482.087.482.297 0 .084-.293.141-.293.21 0 .068.175.179.175.267 0 .186-.393-.027-.393.126 0 .037.109.171.109.205 0 .145-.216.194-.261.194-.061 0-.191-.015-.222-.072.172-.03.244-.198.244-.305 0-.556-.607-.892-.607-1.372zM23.05 6.114c-.01.02-.022.034-.039.057l-.007-.004c.019-.019.034-.038.046-.053zm-4.835 6.385c-.046.014-.09.03-.13.045h-.362l.023-.335.51-.343c-.01.194-.026.404-.04.633zm.999 1.91h-1.06c.015-.11.03-.221.042-.336h1.151l-.026.217c-.035.042-.071.08-.107.119zm-.359.465c.008-.008.02-.016.029-.02.135-.087.261-.198.38-.312h.022c-.015.11-.03.22-.05.332h-.38zm-.85.469c.229-.107.448-.226.629-.336h.582c-.021.115-.04.229-.063.336h-1.148zm-.126.468c.03-.107.057-.216.084-.335h1.165c-.025.119-.052.228-.079.335h-1.17zm-.149.465c.023-.064.046-.122.069-.182.015-.046.027-.1.042-.15h1.175c-.027.096-.054.188-.083.268l-.022.064h-1.18zm-.177.47c.044-.111.086-.222.128-.336h1.178c-.04.114-.078.225-.122.335h-1.184zm-.202.464c.048-.106.095-.22.143-.332h1.188l-.144.332h-1.187zm-.23.47c.056-.111.11-.226.164-.336h1.195c-.054.114-.11.225-.162.336H17.12zm-.249.46c.062-.107.122-.217.184-.335h1.199c-.061.118-.12.225-.18.335h-1.203zm-.087.153c.004-.004.005-.008.005-.008l1.21-.003-.075.125c-.389.061-.786.038-1.14-.114zm-.187.316c.038-.06.076-.13.114-.194.26.115.538.164.818.164.1 0 .204-.007.305-.023l-.029.053h-1.208zm-.3.465c.067-.1.138-.21.214-.331h1.21c-.074.121-.145.232-.21.33h-1.215zm-.33.466c.031-.046.062-.084.096-.13l.141-.202h1.218l-.204.294c-.011.01-.018.022-.03.038h-1.22zm.077-.332c-.03.042-.065.092-.091.125-.1.138-.191.26-.27.37-.234-.194-.432-.373-.561-.495h.922zm-.298-.926h.719c.04.026.084.05.128.072-.171.286-.327.53-.458.72h-1.084c.248-.263.482-.53.695-.792zm-1.349.54l.687-.38.339.015c-.248.293-.517.579-.797.861l-.083-.4-.146-.096zm-6.344-1.44c-.12-.198-.23-.42-.331-.649h.41l.756 1.102.637.447 1.296.266.581.389.853-.03-.64.076-.21.19h-.346l-.227.306-.068.205-.328.069-.017.019s-.065.103-.113.171c-.858-.785-1.742-1.738-2.253-2.561zm.095 1.692c-.129-.19-.287-.434-.459-.724l.124-.068h.724c.214.263.45.53.698.792H8.149zm.184.26c-.028-.034-.06-.085-.092-.126h.927c-.13.122-.328.301-.565.496-.08-.11-.168-.233-.27-.37zm-.252-.126l.144.202c.033.046.061.084.092.13h-1.22c-.01-.016-.016-.027-.026-.038-.056-.077-.126-.18-.206-.294H8.08zm-.305-.465c.076.121.148.232.214.33H6.775c-.066-.098-.135-.209-.21-.33h1.211zm-1.03-.176c.283 0 .563-.045.824-.16.04.07.08.141.118.202H6.481l-.034-.06c.1.011.2.018.3.018zm.748-.285c.003 0 .003.003.007.007-.358.153-.75.18-1.14.118-.023-.042-.047-.084-.072-.125h1.205zm-.26-.477c.062.118.12.228.18.335H6.212c-.058-.11-.119-.217-.18-.335h1.202zm-.232-.461c.054.11.108.225.164.335H5.971c-.055-.11-.11-.22-.164-.335h1.195zm-.21-.466c.05.111.096.226.146.332h-1.19c-.05-.11-.095-.22-.143-.332h1.187zm-.185-.468c.044.114.084.225.128.335H5.55c-.044-.11-.084-.22-.126-.335h1.183zm-.16-.466c.013.05.025.104.043.15.02.06.043.117.066.182H5.374c-.007-.023-.015-.042-.023-.065-.028-.08-.053-.171-.08-.267h1.176zm-.124-.468c.027.119.055.228.084.335h-1.17c-.028-.107-.053-.216-.078-.335h1.164zm-.67-.47c.183.111.4.23.629.336h-1.15c-.02-.106-.042-.22-.061-.335h.582zm-.63-.464c.119.114.245.224.382.313.007.003.02.01.028.019H5.05c-.017-.112-.034-.222-.049-.332h.022zm1.068-.47c.013.116.027.226.042.336h-1.06c-.038-.038-.072-.076-.106-.118-.01-.072-.016-.14-.025-.217H6.09zm.496-1.284c.017.214.034.405.057.546l.023.137h-.511c-.027-.27-.05-.541-.069-.793h.096c.187.06.335.095.404.11zM3.336 5.782h-.004l.274-.141c.11-.061.221-.115.34-.172.002.023.007.042.01.06.014.092.035.207.05.299l-.67-.046zm6.799-2.931c.1-.07-.007-.237.17-.264v.073c.003.164-.294.712-.442.793 0 0-.054-.008-.054-.039 0-.099.235-.59.248-.613.023-.008.058.027.078.05zm-.036-.134c-.057-.068-.126-.206-.126-.248 0-.13.257-.278.353-.278.14 0 .276 0 .276.152 0 .233-.58.058-.503.374zm1.041.415c-.036 0-.711-.35-.711-.507 0-.156.627.218.831.5l-.12.007zm.575.846h-.049c-.19 0-.572-.537-.614-.712.124.042.667.51.663.636v.076zm.36.885h-.054c-.056-.046-.52-.599-.516-.709v-.076c.151.065.576.617.57.71v.075zm.296 1.022c-.118-.065-.461-.645-.461-.774v-.08c.118.069.466.632.461.74v.114zm.152 1.045s-.007.015-.038.015c-.175 0-.29-.553-.339-.763l.023-.145c.091.069.354.633.354.763v.13zm.911.567l.117.118-.029-.16c.02-.007.04-.015.07-.023l.004.008.037-.019c.008-.004.015-.008.02-.008.044-.015.086-.03.119-.045.048-.024.116-.05.185-.076l.046-.016c.065-.026.127-.042.187-.065.006 0 .011-.003.011-.003.038-.008.076-.02.115-.031.075-.027.163-.05.243-.065.03-.003.057-.011.088-.011.158-.03.309-.053.45-.053.396 0 .827.125 1.243.244.356.098.72.198 1.075.232v.003c.009 0 .171.02.375.02.132 0 .28-.008.42-.034.26-.05.446-.203.54-.298-.013.343-.207.973-.57 1.308-.176.168-.373.24-.579.225l-.076-.004c-.286-.016-1.216-.137-1.342-.195-.259-.118-.602-.232-.618-.235v.003c-.285-.088-.484-.095-.873-.095h-.007c-.093 0-.168.003-.23.007h-.003c-.017 0-.034.004-.048.004-.13.011-.272.027-.386.046 0 0-.004-.007-.008-.007-.145 0-.842.228-1 .293-.191-.084-.38-.18-.56-.293-.007 0-.017-.008-.026-.012.265-.275.622-.568 1.01-.763zm-.386.137c-.124.103-.262.183-.409.283-.032-.172-.041-.386-.07-.561l.479.278zm.242-.133c-.034.026-.06.03-.088.05l-.504-.317c.033-.076.077-.16.165-.179l.427.446zm.614-.335l-.042.015c-.004-.011-.008-.023-.008-.034.008-.008.015-.02.042-.042l.008.06zm4.803-.103c-.03.038-.221.266-.522.32-.181.034-.381.034-.53.027-.022-.03-.04-.058-.061-.084-.137-.19-.247-.355-.274-.53.057-.05.187-.153.32-.217.072-.035.202-.077.392-.073.05.041.115.092.193.145.162.11.386.267.482.412zm-.576 6.408h-.51c.014-.073.022-.126.022-.137.023-.138.042-.329.061-.546.072-.015.221-.053.404-.11h.092c-.02.252-.042.522-.069.793zm-.052 1.403c.021-.112.04-.218.056-.332h.94c-.086.072-.172.145-.266.206-.05.034-.122.076-.198.126h-.532zm-.02.133h.312c-.106.061-.225.122-.347.18l.034-.18zm-.625-.598c.073-.329.128-.607.163-.797h.519c-.029.266-.061.534-.098.797h-.584zm.224.934h-.461c.08-.283.149-.553.206-.801h.594c-.034.248-.078.484-.125.713l-.214.088zm-.76.933c.082-.225.158-.45.224-.678.163-.003.35-.05.545-.122h.159c-.05.21-.1.404-.157.572-.027.08-.057.152-.083.228h-.689zm-.415.934c.134-.248.253-.519.36-.8h.691c-.105.278-.217.548-.333.8h-.718zm-.358.572c.079-.11.155-.225.221-.331l.062-.107h.727c-.14.286-.278.556-.415.796h-.206c-.141-.095-.272-.21-.389-.358zm-.084.114c.077.092.155.172.239.244h-.421c.064-.083.125-.164.182-.244zm-3.834-2.6c.034.005.053.012.081.02l.208.914-.282.375h-.065l-.011-1.312c.023 0 .05.004.069.004zm.59.507c-.053-.007-.14-.019-.27-.046l-.092-.41c.194.06.27.14.291.163.01.046.033.16.071.293zm-.903-.655c-.35 0-.76.042-.944.061l.256-.93c.096-.065.84-.542 1.172-.64.3-.092.475.388.48.388l.126-.042c-.011-.027-.22-.598-.646-.476-.353.107-1.106.587-1.206.652l-.197-.012.063-.499c.074-.058.362-.27.86-.477.23-.091.451-.18.645-.18.21 0 .512.093.668.866.236 1.144.244 1.872.244 1.88v.03l.392.367-.125.114c-.039.003-.138.026-.248.026-.126 0-.229-.026-.292-.08-.154-.122-.257-.56-.284-.72l-.004-.012-.006-.01c-.012-.024-.139-.23-.624-.283-.09-.019-.2-.023-.33-.023zm-.889.195c.153-.016.397-.043.648-.054l-.072.275c-.32-.084-.488-.164-.576-.221zm.786-.058h.179l-.08 1.32h-.061l-.28-.394.242-.926zm-5.013-1.97c-.02-.122-.035-.287-.05-.466h10.836c-.016.18-.034.34-.053.466-.016.091-.299 1.886-.89 3.29h-4.24l.258-.344-.082-.362c.156.03.244.042.29.05.05.14.122.278.214.354.087.069.215.107.373.107s.292-.034.292-.034l.02-.008.263-.232-.46-.428c-.006-.148-.033-.846-.244-1.875-.136-.664-.393-.976-.802-.976-.22 0-.457.091-.697.198-.606.244-.902.5-.915.507l-.019.015-.087.695.28.018-.3 1.08.06-.005c.058.073.238.203.722.328l-.144.545.258.367H7.665c-.59-1.404-.874-3.199-.887-3.29zm-.157 2.161c.196.072.385.119.545.122.069.228.143.453.225.678H6.7c-.027-.076-.057-.148-.084-.228-.057-.168-.107-.363-.157-.572h.161zm.263-.934c.058.247.128.518.206.8h-.454c-.076-.026-.149-.057-.223-.09-.048-.226-.09-.463-.126-.71h.597zm1.041-3.214c.027.156.096.286.164.374H6.671l-.01-.374h1.264zm-1.264-.472c0-.008.003-.023.003-.035h1.073c.005.02.009.042.017.054.034.076.093.137.168.183-.008.045-.014.09-.012.137H6.66c-.002-.157-.002-.278.001-.34zm4.072-5.059v.13c-.17-.092-.425-.61-.425-.824 0-.03.012-.034.024-.072.095.069.407.632.401.766zm.34-1.86s-.006.015-.042.015c-.173 0-.389-.644-.417-.82v-.076c.133.023.459.663.459.816v.065zm-.216 3.575c.147.176.378.565.374.778v.164c-.297-.046-.32-.519-.4-.777l.026-.165zm-.164-.335v.244c-.167-.187-.221-.454-.251-.67l.022-.23c.085.141.233.48.23.656zm-.156-1.063c0-.012.317.289.462.755-.11-.07-.462-.607-.462-.755zm.924 1.696v.08h-.051c-.143 0-.553-.644-.549-.698v-.083c.092.045.602.594.6.7zm.049-3.042c-.193-.088-.343-.648-.343-.831 0-.042.013-.065.022-.107.24.222.294.53.342.793 0 .122-.014.122-.021.145zm.184 3.648c-.047.023-.097.05-.15.072-.075-.065-.157-.22-.184-.312.095.026.237.13.334.24zm.078-2.68c-.06-.065-.186-.602-.186-.747 0-.035.01-.153.048-.233.16.168.192.541.192.74 0 .057.006.164-.054.24zm4.64 4.445c-.004-.007-.011-.015-.015-.023.027-.034.055-.084.072-.16.011-.053-.003-.122-.034-.19H17.6c.004.11.013.236.023.373h-1.212zm.135.507c.004-.107-.011-.24-.067-.37h1.152l.02.37h-1.105zm-.189.507c0-.046-.003-.092-.01-.137.072-.046.132-.103.166-.183l.015-.053h1.131l.002.026c.002.057.002.183-.004.347h-1.3zm-.179.507c.069-.088.136-.218.164-.374h1.311c-.003.115-.007.24-.015.374h-1.46zm-.83.507c.105-.073.203-.156.277-.267.12 0 .273-.023.408-.107h1.598c-.004.122-.012.248-.02.374H15.35zm-3.8.294v-.027c.097-.023.164-.069.196-.13h.29l.34.267.014-.118c0-.008.008-.065.012-.149h.236c.035.198.225.35.469.35.179 0 .33-.087.416-.212.076.071.177.11.282.11.06 0 .116-.012.168-.035.042.004.082.012.12.012.177 0 .341-.058.484-.152.05.01.1.022.15.022.027 0 .056 0 .084-.003.08-.011.187-.046.298-.095v.003h2.497l-.029.37h-6.368c.198-.011.34-.095.34-.213zm-.501-.027c-.006 0-.008-.004-.014-.004.037-.003.073-.011.105-.015.025.012.05.019.078.023-.017.004-.036.007-.055.007-.046 0-.08-.003-.114-.011zm-1.893-.13v-.004c.112.05.223.085.3.096.028.003.056.003.083.003.05 0 .1-.011.152-.022.145.094.31.152.485.152.045 0 .091-.008.137-.012.064.031.148.05.248.05.08 0 .163-.015.232-.046.04.084.16.145.324.153h-4.4c-.007-.119-.015-.24-.018-.37h2.457zm-.921-.51c.133.083.284.106.404.106.077.11.174.194.278.267H6.69c-.006-.126-.012-.252-.015-.374h1.559zm-.156-.87l.013-.05c.021-.053.055-.11.097-.171.004-.008.015-.02.021-.027.048-.06.101-.122.173-.183.144-.117.294-.144.394-.144.053 0 .108.008.164.027.043.011.085.025.125.049-.01.003-.015.011-.022.015-.042.019-.08.045-.119.076-.015.015-.032.027-.045.042-.03.027-.058.057-.088.091-.016.016-.03.035-.048.057-.023.035-.044.073-.067.111-.015.027-.03.05-.042.073-.034.068-.064.145-.091.229-.02.064-.034.13-.042.19l-.004.054c-.004.046-.004.09-.002.133.002.022.006.038.006.057.008.038.015.076.027.114l.018.069c.006.008.008.015.012.027-.119-.012-.257-.053-.355-.18-.015-.015-.24-.3-.125-.66zm-.168-.606c.03-.072.079-.137.132-.19.009-.008.02-.016.028-.027.058-.046.122-.088.198-.115.05-.019.096-.03.143-.038.023 0 .044-.004.067-.004.013 0 .027-.003.042-.003.122.003.223.05.292.118.042.05.07.103.078.164-.038-.004-.078-.004-.114-.004-.18 0-.344.06-.477.175-.084.073-.147.137-.2.21-.017.023-.032.05-.048.072-.034.057-.065.115-.084.168-.003.012-.015.023-.018.034-.033-.034-.058-.064-.073-.099-.03-.057-.05-.263.034-.461zm.595-.511c-.015 0-.03.004-.046.004-.02.004-.038.004-.06.007-.058.008-.116.02-.173.04-.102.033-.192.086-.266.155-.011-.02-.025-.046-.031-.088-.007-.03.008-.11.065-.179.04-.054.117-.115.244-.115.011 0 .023.005.038.005.149.01.21.099.229.17zm2.869-.545c-.094.103-.162.23-.204.366H8.55c-.057-.065-.137-.118-.26-.13h-.052c-.122 0-.225.05-.31.13H6.722l.019-.366h4.634zm.47-.358l-.347-.153h.44l-.093.153zm.233.183c.068.038.263.183.324.552-.027.016-.057.03-.092.03-.072 0-.13-.045-.16-.106.031-.05.054-.106.054-.168 0-.121-.068-.224-.171-.277.019-.016.034-.024.045-.031zm.07-.195l-.115-.14h.283l-.169.14zm.125.07l.064-.05.057.083c-.04-.015-.081-.026-.121-.033zm.995 1.314l-.111.05c-.015.008-.29.136-.503.32h-.004c.127-.095.23-.221.297-.37h.32zm1.515 1.93c.01-.008.015-.02.02-.027.043-.046.077-.092.108-.146l.01-.022c.031-.054.058-.11.081-.168.008-.019.011-.042.018-.061.014-.05.032-.1.04-.153.014-.072.022-.152.022-.232 0-.084-.01-.167-.024-.247-.006-.027-.016-.054-.021-.08-.016-.05-.03-.104-.05-.15-.011-.03-.029-.06-.044-.09-.02-.04-.04-.077-.063-.112-.019-.03-.042-.06-.065-.091-.023-.027-.05-.054-.076-.08-.02-.024-.034-.046-.057-.065.046-.008.092-.008.137-.008.092 0 .172.011.248.042.015.004.027.012.042.02.053.022.103.053.149.087.023.019.046.042.068.06.037.04.069.085.101.13.017.027.036.046.051.077.043.08.083.168.115.267.02.061.034.118.042.179v.05c.004.037.007.075.004.113-.004.043-.014.08-.023.119-.004.011-.004.027-.008.038-.008.02-.021.042-.03.061-.012.03-.025.061-.044.087-.187.298-.578.44-.738.458h-.06c.016-.015.03-.038.047-.057zm-.585-1.93h1.018c-.06.023-.107.058-.153.096-.084-.027-.168-.035-.244-.035-.095 0-.194.016-.293.045-.104-.056-.212-.09-.328-.106zm-.044 2.082c.055-.02.107-.046.154-.08l.024-.012c.052-.042.104-.091.148-.149l.003-.003c.094-.119.16-.275.191-.45l.004-.004v-.015c.011-.061.017-.127.017-.195 0-.514-.321-.934-.715-.934-.396 0-.72.42-.72.934 0 .061.015.115.023.176-.01-.016-.015-.035-.03-.047-.008-.06-.012-.12-.012-.182 0-.553.38-.999.852-.999.158 0 .307.053.433.141.043.03.087.065.126.103.01.015.022.023.033.034.05.058.092.119.13.187.008.015.015.035.022.05.028.053.05.114.066.175l.017.062c.017.08.029.163.029.247 0 .08-.012.156-.027.232-.004.023-.011.042-.015.061-.016.057-.035.11-.057.164l-.025.058c-.033.06-.07.121-.117.175-.011.015-.026.03-.04.042-.032.034-.066.069-.101.099-.128.095-.274.157-.436.168.01-.011.014-.027.023-.038zm-.349-.648c-.046 0-.088.007-.13.022-.008.004-.013.004-.019.008-.007 0-.015 0-.02.004-.002-.039-.002-.08 0-.126.033-.324.262-.576.512-.553.227.023.393.263.395.56-.002.015-.002.035-.006.05l-.008.027c-.013.053-.03.102-.049.149-.012.026-.023.05-.035.072-.015.03-.034.057-.051.08-.017.023-.034.05-.052.069-.035.042-.075.08-.12.107.003-.02.003-.03.003-.046 0-.233-.188-.423-.42-.423zm-.993.392c.025-.03.057-.057.094-.08l.032-.019c.051-.023.108-.038.17-.038.049 0 .096.011.142.026v.004h.004c.017.004.032.016.048.023.03.02.057.042.081.065.012.011.025.026.033.042.004.008.01.011.013.019.016.035.025.065.025.1 0 .152-.156.27-.347.27-.194 0-.35-.118-.35-.27 0-.05.022-.1.055-.142zm-.158-.267c0-.13.13-.24.29-.24.16 0 .287.11.287.24l-.002.012c-.04-.012-.08-.02-.122-.02-.074 0-.142.016-.205.042-.02.008-.033.023-.05.031-.04.023-.076.042-.107.072-.008.008-.02.012-.027.023-.042-.045-.064-.099-.064-.16zm-.231-.042h.105c0 .011-.008.027-.008.042 0 .107.05.206.134.274-.008.02-.008.04-.014.058h-.227c.006-.11.012-.24.01-.374zm.692-.301c-.053-.019-.11-.034-.172-.034-.16 0-.295.084-.37.202h-.156c0-.034 0-.069-.004-.103.122-.042.294-.13.431-.27h.27c-.003.038-.007.072-.007.11 0 .03.004.064.008.095zm.065-.846c.042-.13.069-.233.07-.24l.033-.13h.705c-.248.03-.47.164-.629.37h-.18zm.088.133c-.065.11-.111.24-.137.374h-.182c.072-.11.134-.244.182-.374h.137zm-1.804.546c-.187-.225-.247-.42-.268-.534.116.042.314.145.482.309.156.156.29.346.373.472l.031.054c-.158-.02-.424-.084-.618-.301zm-.183.335c-.043-.012-.095-.023-.148-.027.015-.076.03-.156.03-.236 0-.038-.007-.072-.011-.11h.114l.095.122c.103.121.221.2.34.25h-.42zm-.067.259c-.005 0-.009.004-.016.004-.012-.004-.027-.004-.039-.008l-.057-.011c-.013-.004-.027-.004-.04-.008v-.08c0-.015-.002-.03-.01-.05h.008l.042-.003c.153.004.236.064.24.087l-.004.008-.011.011c-.008.008-.021.016-.04.023-.017.008-.042.02-.073.027zm-.436.206c.034-.008.065-.011.091-.023.02-.004.035-.008.05-.015.027-.015.046-.027.063-.042.01-.004.02-.008.027-.015.047 0 .093.007.135.018.012.008.027.012.038.016h.004c.004.004.008.004.012.008.009.007.018.011.024.019.008.007.014.01.016.018h.002c-.004.024-.09.085-.252.085-.035 0-.065-.008-.094-.008-.007-.004-.017-.004-.023-.008-.059-.007-.097-.03-.12-.045.01-.004.02-.004.027-.008zm-.147-.233l.002-.007c.011-.016.02-.027.023-.05.015 0 .027-.008.042-.008.025-.003.046-.007.066-.014.022-.004.037-.012.052-.02.019-.008.039-.015.053-.023 0-.003.004-.003.004-.003.02.011.03.015.038.026 0 0 .005 0 .006.004.006.007.01.012.01.019 0 .02-.086.084-.256.084-.015 0-.024-.008-.04-.008zm-.261.302c.047-.02.107-.03.17-.035h.059v.05c0 .03.007.057.024.08.004.008.008.011.014.02.003.003.003.007.007.01-.026.004-.053.008-.083.008-.168 0-.254-.057-.254-.08 0-.011.02-.034.063-.053zm-.202-.153c-.032-.015-.06-.027-.074-.038h-.002.005c.054.015.111.023.173.023.018 0 .031-.004.05-.008.004 0 .008.004.012.004.003.008.011.011.019.02.004 0 .004.003.007.003 0 .003.002.008.006.008-.011 0-.025.007-.032.015-.059 0-.106-.012-.143-.023-.01 0-.015-.004-.021-.004zm.354-.331c-.01.022-.095.075-.252.075-.169 0-.255-.06-.255-.08 0-.003.008-.011.014-.018.006-.008.014-.012.025-.02l.004-.004c.036.024.078.039.127.05.047.011.101.015.154.015.06 0 .112-.004.16-.015.008-.003.016-.003.023-.003zm-.18-.218c-.04 0-.075-.004-.106-.012h-.007c-.093-.022-.14-.057-.14-.071 0-.027.087-.084.254-.084.157 0 .242.049.25.08l.002.004c0 .018-.088.083-.254.083zm.493.026l-.01.012-.012.012c-.008.007-.02.011-.027.018-.017.008-.039.016-.062.02-.005 0-.01.004-.018.004.017-.024.026-.042.026-.077v-.054c.069.024.103.05.103.065zm-.14-.208c-.064-.077-.192-.123-.352-.123-.227 0-.39.092-.39.222h-.003v.098c0 .02.004.039.012.053-.015.012-.019.024-.03.035l-.012.011c-.023.03-.038.065-.038.1v.098c0 .02.01.05.027.077.003.011.015.02.023.03.007.008.007.016.015.02-.004.019-.004.034-.004.05V12.135c-.143-.152-.236-.384-.236-.644 0-.442.263-.8.581-.8.301 0 .547.316.578.716-.046-.026-.105-.045-.172-.056zm-1.251.602l-.024-.054c-.024-.054-.045-.11-.06-.171-.004-.016-.012-.035-.016-.054-.015-.076-.025-.156-.024-.236 0-.084.01-.164.028-.244.004-.023.011-.046.015-.068.02-.058.04-.115.065-.168.01-.02.017-.039.027-.054.036-.068.078-.13.126-.183.013-.015.027-.027.042-.038.036-.038.076-.073.12-.103.128-.088.275-.141.433-.141.467 0 .852.446.852.999 0 .083-.01.16-.023.236-.006.004-.013.007-.021.007.01-.064.02-.125.02-.19 0-.514-.321-.934-.716-.934-.394 0-.715.42-.715.934 0 .462.26.847.603.919v.03c-.17 0-.328-.06-.462-.16-.053-.041-.103-.088-.147-.14-.005-.005-.009-.012-.015-.02-.04-.053-.078-.11-.108-.167zm-.245-1.396c.077-.03.16-.042.248-.042.046 0 .092 0 .141.008-.02.015-.036.038-.053.057-.03.03-.057.061-.086.091-.02.027-.04.054-.06.084-.026.039-.049.077-.07.119-.013.03-.026.057-.04.084-.019.05-.036.102-.051.16-.006.023-.013.046-.017.072-.019.08-.027.16-.027.248 0 .083.008.163.023.236.004.034.015.06.025.091.011.046.02.089.036.13.015.038.034.072.054.11.015.027.026.054.045.084.023.039.05.073.077.108.016.019.034.042.053.06.013.016.023.035.038.046h-.061c-.158-.019-.549-.16-.74-.453l-.004-.008c-.057-.096-.091-.195-.1-.302-.002-.026.002-.057.002-.083 0-.027 0-.053.003-.084.008-.057.02-.114.042-.175.03-.103.073-.19.118-.27.012-.028.027-.047.042-.066.033-.053.071-.099.111-.137.02-.023.038-.042.06-.057.047-.038.1-.07.156-.096.012-.003.024-.011.035-.015zm.874-.24c-.118.016-.23.05-.328.106-.101-.03-.202-.045-.298-.045-.076 0-.158.008-.244.034-.043-.037-.091-.072-.15-.095h1.02zm1.113.877h-.048c-.025-.133-.072-.263-.135-.374h.054c.011.084.041.217.129.374zm.32-.507h-.316c-.031-.012-.054-.016-.054-.016l-.083-.023v.039h-.146c-.16-.206-.377-.34-.629-.37h.937c.064.149.165.275.29.37zm.236-.655c-.003-.035-.007-.07-.007-.111 0-.073.004-.141.013-.206.036.018.071.027.109.03.021.03.038.069.038.111 0 .084-.068.16-.153.176zm.283.22c.023.031.04.065.04.104 0 .098-.078.174-.174.182-.057-.091-.107-.213-.137-.373.042-.008.082-.023.116-.042.037.057.09.103.155.13zm.2.104l-.028.003v-.003c0-.027-.007-.058-.016-.088.092-.015.168-.065.215-.138.006.004.006.008.012.008-.021.141-.059.252-.101.34-.042-.031-.076-.07-.082-.122zm-.22.838h-.106c-.042-.05-.078-.103-.126-.149-.094-.095-.198-.167-.292-.225h.273c.035.016.068.027.107.035.042.072.105.194.145.339zm-.026-.546c.073-.022.134-.072.17-.133.025.03.048.057.082.08-.061.076-.118.118-.153.141-.023-.015-.057-.042-.099-.088zm.541.172c-.076.096-.14.221-.19.34-.042-.137-.092-.23-.126-.29.073-.007.14-.023.207-.05h.11zm-.518-1.09c.015-.008.03-.015.046-.027.05.073.131.119.22.13.035.038.052.08.052.122 0 .103-.082.183-.18.183-.077 0-.138-.046-.167-.114.033-.05.056-.103.056-.168 0-.042-.012-.084-.027-.126zm-.351-.725l.091.043c-.007 0-.014.003-.02.007-.01.004-.02.009-.029.016-.01.004-.017.004-.026.007l-.016-.073zm.19.154c-.118.129-.24.365-.24.762 0 .412.13.651.252.792-.345-.091-.589-.415-.589-.781 0-.366.242-.675.578-.773zm-.673 1.02h-2.16c-.02-.06-.052-.117-.096-.167-.068-.076-.162-.122-.27-.149-.003-.019-.003-.034-.01-.057h2.51c-.006.042-.013.084-.013.126 0 .084.015.168.039.248zm.205 1.956c.02-.01.045-.022.06-.038.13.012.2.061.2.08 0 .012-.047.058-.142.077h-.002c-.021.003-.048.007-.075.007-.013 0-.022.004-.038.004v-.115c0-.007-.003-.01-.003-.015zm.392.042c0-.106-.114-.183-.282-.21v-.08h-.004c0-.019-.011-.037-.019-.053h.57c-.009.16-.022.298-.03.374h-.23v-.03h-.005zm.513-.618c.024.267.006.618-.01.802l-.137-.11c.008-.074.024-.253.035-.455l.004.008.006-.221v-.168c-.006-.224-.09-.423-.162-.56.007 0 .01.003.015.008l.01.007c.032.038.146.194.214.53l.13.007c.053-.163.139-.388.252-.522.122-.138.314-.255.442-.328-.053.18-.16.477-.29.637-.136.172-.349.259-.465.293l-.05.02.006.052zm1.237.31l-.023.023-.013.01c-.05-.121-.082-.266-.082-.41 0-.443.263-.802.583-.802.237 0 .44.195.53.481-.091-.11-.213-.183-.35-.198-.323-.027-.618.278-.655.674-.007.076-.001.15.01.221zm.042.274c-.004-.011-.008-.023-.015-.03-.002-.012-.004-.016-.008-.024.004-.015.008-.03.015-.041.004-.008.008-.02.015-.027l.004-.008c.01-.015.024-.03.035-.041.007-.004.011-.012.019-.016l.01-.011c.017-.012.032-.019.053-.027.006-.004.01-.008.015-.008.006-.003.008-.007.011-.007.03-.008.06-.015.094-.015.156 0 .286.125.286.286 0 .053-.015.099-.042.14l-.012.02c-.028.038-.064.072-.114.092l-.03.018c-.027.008-.058.016-.088.016-.09 0-.168-.042-.222-.107.004-.019.009-.042.009-.069 0-.05-.016-.1-.035-.14zm2.211-.735c0-.02 0-.039-.004-.057-.007-.062-.02-.126-.041-.191-.027-.088-.058-.16-.092-.23-.01-.022-.019-.033-.03-.056-.025-.042-.05-.092-.08-.127-.016-.022-.031-.037-.046-.057-.027-.034-.053-.064-.082-.091-.017-.015-.036-.03-.053-.042-.033-.027-.067-.049-.101-.069-.011-.007-.023-.019-.035-.022.039-.024.08-.038.124-.05.056-.018.109-.026.166-.026.099 0 .248.027.39.144.071.061.125.119.17.18l.031.033c.038.058.069.116.092.169.007.015.007.03.013.045.116.359-.113.648-.128.664-.095.126-.232.167-.353.179.006-.012.006-.02.01-.03.008-.023.015-.043.019-.062.01-.038.02-.076.026-.114.004-.02.004-.039.008-.061.002-.042 0-.084-.004-.13zm-.005-1.56c.02-.072.08-.16.228-.171.15-.016.239.053.285.11.053.07.072.15.065.18-.012.042-.02.072-.03.091-.077-.069-.165-.126-.268-.16-.06-.02-.118-.03-.176-.038-.02-.004-.037-.004-.059-.008-.017 0-.028-.004-.045-.004zm.235.18c.077.026.14.068.198.114.01.011.022.023.034.03.051.054.095.115.128.187.082.198.063.404.034.462-.018.034-.04.064-.07.098-.006-.015-.018-.03-.023-.045-.02-.046-.046-.096-.075-.142-.02-.034-.036-.06-.057-.09-.054-.07-.116-.139-.197-.207-.137-.114-.303-.175-.476-.175-.038 0-.08 0-.114.004.007-.061.034-.115.076-.164.11-.126.312-.153.542-.073zm-2.982-.222h2.62c-.009.023-.009.039-.009.057-.108.027-.203.073-.27.15-.046.049-.076.106-.095.167h-2.27c.02-.08.036-.164.036-.248 0-.042-.008-.084-.012-.126zm-.47-.697l.138-.023-.05.076c-.007-.003-.015-.008-.024-.015h-.002c-.02-.012-.04-.027-.061-.038zm.028.187c.194.144.32.373.32.636 0 .374-.248.69-.589.781.12-.14.254-.38.254-.792 0-.393-.122-.625-.239-.759.006.004.012.004.015.008.052.015.098.042.143.069.033.015.065.03.096.057zm-.507.14c0 .1-.08.183-.18.183-.037 0-.076-.019-.106-.045.038-.141.091-.24.147-.312.078.022.139.09.139.174zM10.59 8.82c.023-.1.056-.19.073-.282.156.05.252.06.252.164 0 .01-.012.019-.02.03-.103.03-.206.061-.305.088zm-.339-.061c.036-.023.074-.053.11-.053.027 0 .073.08.123.14-.056.012-.107.023-.159.031-.02-.03-.036-.072-.074-.118zm-.305.06h.14c.013.028.028.055.042.089-.033.003-.06.003-.085.003h-.059c-.011-.022-.023-.053-.038-.091zm-.198.089h-.174l-.001-.004v-.092c0-.003 0-.007.003-.007.048.023.138.042.172.103zm-.382-.004c-.344-.015-.766-.141-1.193-.347.443-.149.733-.176 1.186-.176.055 0 .166.004.26.011-.058.165-.161.348-.253.512zM7.834 8.66c.057-.016.107-.03.152-.05.035.02.068.034.102.05h-.254zm.541.133c.366.149.719.237 1.02.244v.004l.648.008c.204 0 .673-.107 1.112-.256h.304l.084.359c-.003.003-.011.011-.017.011H6.747c.005-.038.012-.08.015-.133.006-.034.012-.08.016-.126.152-.027.366-.061.58-.11h1.017zm-.59 1.525c-.054.13-.07.263-.065.37H6.67c.005-.107.012-.237.017-.37h1.097zm-1.091-.137c.008-.13.011-.252.017-.358l.002-.016h1.12c-.031.069-.05.138-.035.19.015.077.044.127.072.165-.005.007-.01.011-.013.019H6.694zm10.898-.51h-1.254c-.084-.081-.187-.13-.307-.13h-.054c-.122.01-.206.064-.263.13h-2.73c-.038-.138-.108-.264-.202-.367h4.785l.017.252h-.002l.01.114zm-4.377-.878c.059.023.12.038.181.061.017.004.034.008.05.015.122.035.248.07.37.096.015.004.03.004.044.008.28.053.558.08.832.068.008 0 .012.004.016 0 .442-.004.82-.08 1.206-.248h.837c.309.042.637.08.784.088l.02.282h-4.763l.15-.244-.43.06-.119-.186h.822zm1.074-.381c-.004-.004-.008-.012-.012-.019.015-.008.046-.015.084-.023.072-.008.14-.012.198-.012v-.004c.038 0 .076-.003.126 0h.007c.393 0 .58.004.866.096.076.027.256.096.43.168-.423.202-.815.29-1.29.29-.16.003-.322-.004-.486-.023-.041-.004-.087-.008-.13-.016-.165-.022-.333-.057-.5-.099-.026-.011-.059-.022-.085-.03-.097-.027-.192-.07-.287-.103.176-.057.447-.145.629-.195v.004l.148-.027c.082.088.166.164.24.176l.039.008.026-.023c.03-.015.03-.057.03-.069 0-.034-.014-.065-.033-.099zm-2.032-1.155c0-.038.013-.114.053-.175.17.247.2.507.2.735 0 .031 0 .142-.021.222-.13-.1-.232-.603-.232-.782zm.064 1.124l-.011-.003c.004-.008.011-.016.017-.02 0 0 .001.004.005.004l.05.03c.152.092.313.176.473.249l-.006.003.033.016h-1.388c.076-.03.145-.065.212-.1.346-.099.615-.179.615-.179zm-.247-1.685c.06.02.101.283.101.367 0 .171-.04.495-.165.625-.036-.115-.062-.305-.062-.336 0-.213.042-.434.126-.656zm-.11.008c-.077-.038-.127-.435-.127-.556 0-.084.054-.37.096-.435.057.077.121.511.121.58 0 .17.012.186-.09.411zm-1.67-3.5c0-.03.028-.17.064-.258.149.225.15.392.15.598 0 .103.006.256-.05.35-.125-.167-.165-.472-.165-.69zm.25 1.503v.225c-.232-.195-.232-.477-.318-.71l.021-.217c.16.111.302.53.298.702zm-.33.712c.132.202.134.412.134.614 0 .035-.015.233-.032.359-.015.003-.015.007-.019.01-.05-.037-.087-.087-.114-.144-.042-.18-.054-.45-.054-.45 0-.11-.003-.282.085-.389zM9.95 4.287h-.057c0-.053-.015-.13-.015-.16 0-.186.145-.709.257-.82.039.062.04.168.04.202 0 .256-.087.516-.225.778zm.113.042c.122.11.113.332.113.454 0 .175.01.359-.107.53-.004 0-.008 0-.006.004-.07-.1-.105-.488-.105-.5 0-.064.076-.435.105-.488zM5.394 7.048c.084-.088.192-.172.31-.26.129-.095.26-.198.38-.316.03.003.19.03.355.099.236.107.292.164.292.164l.001-.004c0 .008.004.015.004.02 0 .14-.095.372-.26.624-.16 0-.424-.007-.624-.057-.128-.034-.31-.11-.458-.27zm.425.396c.214.057.482.068.65.068.092 0 .153-.004.16-.004.344-.003.698-.103 1.077-.202.43-.117.868-.243 1.345-.243.348 0 .792.121.93.168v.003c.335.107.628.32.815.488.035.134.176.812.391.812.12 0 .088-.164.088-.168 0-.034-.027-.236-.067-.365.046.011.087.042.118.076-.03.022-.038.038-.038.076 0 .091.114.251.189.366-.086.038-.18.072-.274.11-.15-.06-.46-.187-.635-.244-.25-.083-.555-.09-.813-.11l-.036-.007c-.112-.015-.288-.02-.36-.02-.416 0-.702.023-1.079.133l-.175.05c-.138.05-.324.11-.576.18-.25.072-.537.125-.74.156l.002-.008-.087.019c-.262.057-.508-.004-.73-.183-.397-.312-.64-.953-.64-1.361 0-.015.003-.034.006-.053.164.152.346.232.48.263zm.352 6.168h.52c.035.19.09.468.163.797h-.586c-.036-.264-.068-.53-.097-.797zm-.49 1.262c-.08-.05-.155-.092-.204-.126-.093-.062-.179-.134-.263-.206h.938c.017.114.038.22.056.332H5.68zm.547.133l.035.175c-.122-.057-.234-.114-.341-.175h.306zm.858 2.203c-.114-.252-.227-.522-.332-.8h.69c.107.281.23.552.36.8h-.718zm1.159.686c.059.08.118.16.183.244h-.423c.085-.072.163-.152.24-.244zm-.475.244h-.2c-.14-.24-.278-.51-.415-.796h.724c.02.034.038.069.061.107.069.106.141.22.221.33-.118.15-.252.264-.39.36zm7.85.084c-.046.058-.095.115-.143.172l-.023-.183.166.011zm-.318-.164l.034.256-.282-.015-.917.506.287.191.058.293-.118.042-.183-.342-.658-.492-.55.251-1.53.05-.57-.381-1.294-.267-.594-.413-.69-1.006h8.271c-.103.23-.212.45-.334.649-.145.232-.32.472-.515.717l-.415-.039zm5.38-12.099h.003l.035.027.072-.11c.008-.004.014-.004.02-.008.213.133.549.266.8.266.06 0 .145-.045.263-.114.069.023.256.114.39.18.003.003.01.003.015.007l-.05.019c-.084.034-.168.065-.252.091-.306.107-.619.217-.891.412-.096.061-.125.171-.153.27-.031.12-.06.233-.184.325-.663.476-1.315.991-1.948 1.486-.352.279-.717.56-1.077.839l-.002-.02c-.004-.05-.004-.083-.004-.083h-.003l-.048-.66c.22-.01.422-.095.605-.266.415-.385.61-1.09.61-1.433 0-.19-.188-.363-.393-.515.308.118.606.228.927.228.468 0 .897-.296 1.303-.914l-.038-.027zm-.621-.13l.011-.045h.002l.013-.061c.027.011.054.023.076.03.085.027.172.057.26.076h-.362zm.4.142c.006 0 .022-.004.042-.004.017 0 .042-.004.075-.008-.372.545-.752.804-1.161.804-.317 0-.62-.114-.939-.24l-.127-.046.002-.004c-.168-.072-.267-.106-.3-.106h-.01c-.224 0-.375.05-.465.095-.089.042-.175.1-.243.152.059-.262.282-.647.575-.868.12-.1.302-.203.481-.15l.678.13c.012.005.031.005.06.012l.091.015h.01c.015 0 .046-.007.07-.007.078-.008.166-.023.258-.07.125-.06.281-.255.404-.419.003.122.011.267.011.32l-.011.088-.012.046c-.011.061-.02.115-.038.172l-.021.084.57.004zm-4.521-2.22h.057c.286.23.37.409.37.64 0 .112-.039.287-.195.287-.084 0-.08.007-.18-.068.135-.157.135-.199.135-.325 0-.194-.088-.3-.187-.533zm-1.761.64c.098 0 .186.13.186.207v.298c-.027.011-.047.019-.08.019-.119 0-.172-.363-.202-.489.034-.018.061-.034.096-.034zm.226-.643c0 .034-.028.19-.082.294-.091-.221-.16-.454-.206-.717.243.114.288.248.288.423zm.242.735c0 .088.007.184-.13.202-.038-.186-.194-.388-.194-.483 0-.03.015-.046.037-.077.218.077.287.225.287.358zm.256-.811c0 .11.01.19-.106.316-.186-.14-.12-.362-.182-.549-.033-.103-.189-.263-.246-.4h.061c.29-.004.473.557.473.633zm-.378-.957c.217 0 .795.244.795.568 0 .068-.01.118-.068.118-.097 0-.737-.58-.792-.682l.065-.004zm.911 1.22c0 .073-.037.232-.11.232-.035 0-.054-.018-.082-.034-.025-.172-.208-.476-.208-.56 0-.03.027-.046.05-.077.26.118.35.244.35.439zm.301-.831c-.148 0-.091-.088-.346-.23-.187-.102-.398-.148-.61-.239.076-.042.21-.053.244-.053.236 0 .73.133.844.457-.081.03-.094.065-.132.065zm-.198.408c.317.19.385.427.385.644 0 .099-.007.179-.133.26h-.069l-.012-.032-.028.031h-.011c-.004-.023-.018-.034-.018-.072 0-.031.04-.278.04-.313 0-.167-.074-.297-.154-.518zM14.5 1.71c0-.034.028-.057.03-.095h.143c.118 0 .381.05.47.21v.096h-.089c-.139.003-.348-.145-.537-.153-.002-.02-.018-.03-.018-.058zm.121.214c.142 0 .605.073.605.365 0 .028-.03.085-.067.115-.13-.115-.244-.164-.366-.198-.08-.023-.19-.008-.255-.054-.058-.03-.039-.133-.065-.178.05-.027.114-.05.148-.05zm-1.082 3.412c.053.034.09.034.131.034.006-.004.01-.004.015-.004.079 0 .151-.023.22-.069.042.054.091.084.179.084.19 0 .288-.122.421-.293.011-.015.025-.03.042-.05.074.031.149.02.212-.022.106-.077.162-.237.167-.366.09.011.191.03.226.03.13 0 .224-.03.285-.099.05.046.11.072.16.072.023 0 .046-.007.071-.023.12.172.394.306.581.306.123 0 .229-.05.312-.142.077-.09.113-.213.112-.34.03 0 .062-.007.099-.033.25.21 1.17.85 1.537.85h.02c.056 0 .09 0 .166-.054.36.252.533.36.797.397h-.107l-.762-.152c-.184-.042-.39.015-.596.175-.338.263-.651.781-.651 1.094 0 .248.148.446.309.667-.016 0-.027-.004-.035-.004-.35-.03-.717-.13-1.071-.232-.427-.122-.866-.244-1.281-.244-.153 0-.307.023-.473.05-.02 0-.034.003-.054.007-.02 0-.042.008-.064.012-.008-.039-.023-.07-.046-.107l-.048-.08-.058.072-.036.034c-.04.039-.09.092-.098.157-.02.007-.042.011-.066.019-.02.008-.04.015-.06.019l-.06.022c-.005-.03-.007-.053-.008-.075 0-.023-.006-.046-.008-.065V6.83l-.107.088c-.147.114-.193.168-.193.221 0 .027.006.061.014.095 0 0-.002 0-.004.004-.004.004-.01.004-.015.008l-.065.023V7.26c0-.046.003-.122-.077-.187l-.054-.042-.052.073c-.04.06-.073.103-.09.141-.077-.084-.142-.156-.165-.19.003-.024.013-.047.02-.07.029-.103.071-.24.071-.331 0-.202-.058-.336-.106-.45-.042-.091-.082-.176-.082-.298 0-.11.047-.232.095-.362.01-.027.023-.053.032-.083.027.007.053.015.08.015.069 0 .153-.027.218-.141zm-.033-1.78c0-.031.067-.061.101-.061.277 0 .464.411.464.541 0 .042-.013.06-.015.099 0 0-.004.019-.04.019-.033 0-.073-.015-.088-.038-.157-.21-.422-.557-.422-.56zm.077.587c.188.179.272.358.272.544 0 .104-.053.367-.22.416-.02-.045-.047-.11-.047-.14 0-.039.08-.348.08-.382 0-.034-.065-.278-.085-.438zm-6.01.686c.024 0 .06-.012.13-.035.049-.015.106-.034.148-.041.024-.008.047-.012.072-.016.084-.011.18-.023.282-.118.023.02.053.034.086.034.07 0 .12-.041.164-.08.004-.003.005-.011.01-.011.062.03.14.05.175.05.107 0 .16-.05.217-.1.004-.007.011-.007.016-.011v.126c.003.244.65.66.77.66h.007c.063 0 .124-.008.185-.07.061.119.12.214.2.23-.048.136-.057.33-.057.33 0 .226 0 .584.243.755-.098.184-.17.351-.24.53l-.007.028c-.185-.058-.593-.16-.922-.16-.493 0-.946.125-1.38.247-.37.103-.717.194-1.034.194.103-.175.233-.43.233-.62 0-.428-.641-1.32-1.144-1.32-.152 0-.345.065-.534.126-.153.05-.293.091-.38.091-.102 0-.296-.068-.483-.195h.001c.554.024.786-.182.902-.296.017-.012.04-.035.052-.042.01.004.027.007.045.015.08.019.142.035.176.035.263 0 .492-.164.732-.344l.072-.053c.023-.015.088-.023.141-.03.069-.005.138-.016.191-.043.065-.034.137-.083.216-.14.104-.07.22-.153.33-.199.026.053.043.114.06.168.035.137.08.305.324.305zm.129-.671c0 .137.023.08.092.255-.05.008-.115.023-.145.023-.157 0-.203-.122-.203-.232 0-.244.208-.488.494-.64l.056.01c-.15.226-.294.386-.294.584zm.654-.705c-.048.183-.157.381-.157.564 0 .126.013.122.134.316-.05.02-.128.034-.162.034-.213 0-.198-.232-.198-.323 0-.191.16-.435.383-.591zm.517-.804c.064 0 .133.034.211.05-.208.12-.583.338-.616.338-.051 0-.122-.05-.122-.118 0-.16.45-.27.527-.27zm.004-.538c.045 0 .315.019.315.106 0 .023-.041.142-.092.145-.193.004-.414.039-.635.164-.024-.034-.061-.057-.061-.092 0-.224.358-.323.473-.323zm-.125-.164h-.055c-.002-.023-.028-.046-.028-.076 0-.172.493-.218.512-.218.072 0 .145-.007.145.084 0 .061-.507.187-.574.21zm.033 1.425c-.022-.034-.023-.05-.023-.087 0-.34.511-.434.657-.461l.056.008c-.168.183-.479.48-.69.54zm.661.595v.115c.002.155-.187.373-.19.58-.092-.028-.143-.146-.143-.192 0-.175.094-.465.333-.503zm-.318-.294c-.088.111-.11.34-.305.386-.019-.034-.019-.08-.019-.115 0-.32.373-.583.656-.583.034 0 .03.011.054.023-.123.11-.286.16-.386.29zm-4.98 2.219c-.013-.095-.038-.251-.06-.38l-.012-.089c.03.027.065.054.1.084.205.164.468.279.636.279.107 0 .261-.05.423-.103.17-.05.362-.115.492-.115.358 0 .831.588.968.988-.051-.03-.114-.065-.206-.103-.194-.088-.394-.115-.404-.115h-.008c-.25-.057-.552.065-.844.187-.234.1-.478.206-.68.206-.348 0-.614-.172-.988-.632l-.04-.05c-.024-.039-.067-.084-.1-.123l.735.05-.011-.084zm-.724.24l.038.05c.4.5.698.678 1.09.678.23 0 .484-.103.732-.21.218-.087.435-.186.625-.194-.09.084-.19.157-.285.225-.132.096-.25.19-.35.298-.068.069-.073.221-.073.255 0 .45.259 1.128.69 1.468.204.164.438.24.678.225v.007c.004-.004.027-.004.056-.007.005-.004.013 0 .018 0-.003.03-.007.06-.013.087-.004.05-.012.1-.015.145-.008.187-.014.305-.02.393h-.003l-.004.099c-1.132-.816-2.226-1.62-3.206-2.463-.027-.03-.034-.095-.04-.16-.01-.095-.02-.217-.12-.278l-.011-.007c-.012 0-.995-.39-1.624-.656.099-.027.198-.058.286-.084.07-.023.144-.046.182-.053.134.072.239.103.325.103.312 0 .598-.103.888-.24-.015.018-.015.053-.015.057 0 .05.034.103.171.263zm3.15 6.412h-.368l-.131-.045c-.017-.23-.03-.439-.041-.63l.521.351.018.324zm-.364-1.868c-.015-.293-.01-.594 0-.788h.107l.25.186c-.01.206-.02.435-.03.602h-.327zm.323.934h-.186c-.022-.095-.08-.358-.104-.537-.011-.08-.017-.168-.025-.256h.313c0 .008-.004.023-.004.031-.004.11-.004.404.006.762zm-.494 2.002l.036.335h-1.15l-.034-.335h1.148zm-.046-.47l.031.329H4.877c-.01-.11-.02-.217-.028-.328h1.143zm-.042-.464l.03.331H4.838c-.011-.114-.019-.22-.027-.331h1.14zm-.795-.465c.216.137.443.244.655.331H4.8c-.006-.114-.013-.224-.021-.331h.375zm-.192-.134h-.19l-.009-.149c.066.054.134.1.199.15zm.955.134l.017.237c-.166-.062-.343-.142-.518-.237h.501zm-.067-.466l.04.027c.006.095.014.199.018.305h-.714c-.145-.098-.293-.21-.44-.328v-.004h1.096zm-1.124-.605c0-.062-.002-.115-.004-.153l.229.153h-.225zm.428.137l.498.331h-.905c-.006-.122-.012-.236-.013-.331h.42zm2.842 8.866c-.103.066-.204.122-.305.168-.02-.023-.065-.076-.14-.168h.445zm-.55-.14c-.066-.085-.148-.195-.247-.328h1.216l.084.11c-.095.073-.196.149-.298.217h-.754zm5.104 3.815c.013.138.026.248.04.332h-.965c.013-.077.026-.19.042-.332h.883zm-.044-2.523c.03-.02.06-.038.091-.061.016.125.042.34.075.587h-.132c-.011-.187-.023-.366-.034-.526zm.003 2.054c.01.122.02.233.027.336h-.858c.012-.103.021-.214.03-.336h.801zm-.034-.46l.023.326h-.778l.023-.326h.732zm-.034-.47l.023.332h-.71l.024-.332h.663zm-.027-.469c.006.107.012.221.02.328h-.648l.022-.328h.606zm-.331-.469l.027.016.034.019.03-.02c.008-.002.019-.01.027-.015h.183c.007.111.015.222.02.34h-.588c.008-.118.013-.229.019-.34h.248zm.516 1.27c-.017-.263-.036-.538-.051-.801h.14c.035.271.077.56.112.801h-.2zm.536.854c.02.008.036.012.055.019v.004h.006c.042.02.088.034.126.053.003 0 .008 0 .011.004h-.663c-.02-.229-.04-.503-.061-.796h.21c.03.2.059.353.076.4l.015.045c.034.092.057.145.11.195l.002.004h.002c.029.026.062.05.111.072zm.465.023c.005.011.01.027.013.038-.021-.011-.044-.027-.065-.038h.052zm-.375-.137c-.03-.012-.075-.035-.11-.058.02-.007.052-.027.115-.045.061-.027.167-.046.278-.058.01.027.027.084.05.16h-.333zm-1.647-3.378v.046h-.124v.011l-.065-.088.03-.03.002.008.014.053h.143zm.25-.229h-.23c-.003-.023-.005-.05-.005-.084 0-.03.002-.06.006-.08h.228c-.003.023-.007.05-.007.08 0 .031.004.058.007.084zm.005.275v-.046h.288v.046h-.133v.091h-.025v-.091h-.13zm.528-.275h-.228c0-.023-.004-.05-.004-.083 0-.031.004-.061.007-.08h.225c-.004.022-.004.049-.004.08 0 .03 0 .057.004.083zm.015.275v-.046h.286v.046h-.13v.091H12.5v-.091h-.122zm.515-.275h-.225c-.004-.023-.007-.05-.007-.083 0-.031.003-.061.007-.08h.225c-.004.022-.004.049-.004.08 0 .03 0 .057.004.083zm.122.229l-.017.046h-.078v-.046h.095zm.103-.046l-.008-.034c-.014-.069-.025-.133-.025-.202 0-.061.01-.134.025-.194l.02-.088h-.21v-.225h-.255v.225h-.287v-.225h-.255v.225h-.288v-.225h-.255v.225h-.143l-.014.058c-.019.072-.028.144-.03.212l-.244.248h-.402l.246.42.348.221H13l.273-.156c-.438.361-.837.651-1.128.812-.425-.233-1.068-.725-1.735-1.331l.109-.168.349-.065.088-.262.17-.23h.334l.216-.197 1.102-.134.183.225.305-.206.202.053-.04.29.246.255-.047.439.103.134c-.106.09-.21.182-.312.266l.095-.366h-.396zm.454-.77l.05-.347-.382-.099-.252.172-.11-.141.126-.004.503-.225.572.427.221.412.236-.08c-.232.232-.469.453-.705.663l-.06-.084.045-.442-.244-.251zm3.164.846c-.076.092-.118.15-.141.168-.099-.046-.202-.102-.305-.168h.446zm-.648-.14c-.103-.07-.202-.145-.3-.222l.083-.106h1.22c-.101.133-.183.243-.248.327h-.755zm3.31-6.393l-.034.335h-1.148l.034-.335h1.148zm.044-.47l-.03.329h-1.146l.032-.328h1.144zm.036-.464c-.008.11-.015.217-.025.332h-1.145l.03-.332h1.14zm-.606-.465c-.174.095-.353.175-.52.24.005-.08.013-.168.019-.24h.5zm.636 0c-.003.107-.011.217-.019.331h-1.01c.213-.087.438-.194.652-.331h.377zm-.183-.134c.068-.05.134-.095.2-.148-.001.045-.005.095-.007.148h-.193zm.21-.332v.005c-.147.118-.293.229-.44.327h-.717c.006-.106.014-.21.017-.305l.039-.027h1.101zm-.198-.605l.233-.157c-.004.042-.004.096-.008.157h-.225zm.221.137l-.015.331h-.908l.496-.33h.427zm-1.575-.603h-.194c-.01-.172-.023-.4-.038-.613l.238-.175h.094c.008.171.011.438.003.708-.038.027-.072.054-.103.08zm-.183.309c.039-.026.119-.087.224-.168h.049c-.006.088-.013.176-.025.256-.025.18-.082.442-.103.537h-.164c.011-.251.02-.476.02-.625zm.965-.766c.126-.11.257-.22.385-.331h.09v.045l-.01.286h-.465zm-.549.458v-.008c.118-.1.248-.202.387-.316h.62l-.023.324h-.984zm.176-.324l-.17.133.002-.133h.168zm-.168-.134c0-.13-.004-.24-.008-.331h.732c-.131.11-.265.225-.393.331h-.331zm.58-.942l.394-.29.021.29h-.416zm.422.133c.004.073.004.146.008.222-.042.038-.084.076-.13.114h-.891c-.002-.007-.002-.015-.002-.023l.417-.313h.598zm-.777 1.87l-.346.231c.016-.068.033-.148.049-.232h.297zm-.277-.138l.008-.05c.013-.088.02-.183.028-.275h.93l-.487.325h-.479zm1.2-1.457c.072-.072.148-.14.213-.206.32-.32.785-.869.79-.876l-.103-.084c-.005.004-.466.546-.782.865-.04.042-.082.084-.126.125-.012-.266-.03-.521-.04-.616l1.607-1.198-.08-.106-3.11 2.31-.005-.088c.385-.294.776-.598 1.15-.888.634-.496 1.282-1.006 1.946-1.487.16-.122.202-.274.232-.396.023-.095.042-.16.1-.202.257-.183.563-.29.86-.39.037-.015.077-.03.115-.041l.037-.015c.081-.027.162-.058.238-.088l-.002-.008v-.003l.004.011.112-.046-1.483 1.01-.034.382.034-.027.11 1.285v.548l-1.824 1.228c.013-.183.04-.51.044-.75 0-.077-.002-.16-.004-.249zm3.366-3.411c-.017.014-.038.034-.061.064h-.004c-.034.038-.085.107-.14.18-.005.003-.008.007-.012.014-.027.035-.05.066-.08.1-.233.313-.592.778-.786.9-.095.064-.225.06-.366.057-.059-.004-.118-.008-.175-.004h-.023l.785-.632c.187-.146.374-.294.511-.409.109-.087.172-.141.21-.168l.02-.015h-.005c.039-.042.035-.049.03-.068l-.018-.088.263-.106c-.038.045-.092.11-.149.175zm1.016 1.88s-.006-.008-.006-.012l-.015-.077-.072.03c-.31.112-.609.219-.912.332-.32.115-.639.23-.96.343l-.043.02-.003.038c-.014.24-.2.385-.454.534v-.466l-.103-1.182c.035 0 .07.004.1.008.152.008.312.015.441-.072.218-.137.565-.595.822-.93l.077-.103.188-.225.06.01c.055.009.085.016.108.016.324 0 .37-.209.37-.33 0-.276-.408-.535-.625-.634.003-.011.007-.03.007-.045 0-.336-.678-.702-1.189-.946l-.038-.02c-.013-.087-.05-.205-.122-.281-1.708-1.61-3.551-2.608-5.178-3.496-.3-.156-.718-.248-1.143-.248-.461 0-1.786.199-2.001.382-.233.202-.34.514-.34.735 0 .39.221.67.4.9.126.16.233.297.233.427 0 .073-.046.122-.126.145-.172-.366-.514-.408-.763-.408-.019 0-.068.003-.178.02-.058.006-.134.018-.16.018-.035-.019-.115-.13-.13-.168 0-.02.011-.065.02-.103.014-.072.018-.103.018-.126 0-.221-.149-.331-.347-.45 0-.022-.004-.053-.017-.08-.054-.095-.15-.148-.267-.148-.057 0-.164.034-.372.11-.002.008-.007.008-.01.008-.009 0-.02-.011-.032-.015.062-.15.062-.244.062-.366C11.053.327 9.642.296 9.48.296c-1.986 0-4.413 1.693-6.534 3.29-.168.13-.292.282-.406.43-.128.168-.248.324-.422.431-.087.058-.175.1-.262.15-.199.106-.403.217-.582.407-.052.05-.082.122-.113.187-.019.038-.042.087-.057.106-.053.054-.122.107-.183.16-.184.15-.374.306-.374.511 0 .18.134.313.31.313.191 0 .3-.068.392-.118.012-.007.025-.015.034-.015h.004c.416.503 1.25 1.494 1.258 1.502l.008.01c.13.108.309.092.465.077.034 0 .065-.003.093-.003l-.101 1.158v.473c-.023-.011-.044-.027-.065-.034-.11-.065-.213-.126-.292-.21-.024-.026-.037-.084-.05-.133-.02-.092-.039-.19-.134-.237L.22 7.943l.16.195c1.423 1.684 1.506 1.684 1.541 1.684h.494l-.11 1.24v2.61c.004.603.296 2.371.363 2.665.254 1.106.658 2.413 1.726 3.736.032.042.069.08.103.118l-.007.02s.014.003.043.018c.844.965 1.996 1.545 3.124 1.545.877 0 1.91-.37 3.062-1.094-.292.746-.685 1.71-1.228 2.5l-.054.076.092.027c.08.019.18.038.218.038h.427c.148 0 .262.011.339.03l-.157.5-.003.019c0 .016-.002.034-.004.05-.003.022-.008.042-.008.064 0 .016.005.027.008.038v.008h.004c.053.183.438.232.442.232.225.008.332.008.399 0l-.063.401.007.015c.139.427.722.427 1.04.427h.091c.182 0 .552-.004.724-.175.06-.065.09-.133.09-.225 0-.02-.008-.069-.046-.244-.016-.058-.03-.126-.04-.172.162.004.543 0 .728-.16.047-.042.074-.099.086-.16h.01c.005-.011-.003-.023-.003-.034 0-.008.004-.015.004-.023 0-.026-.008-.057-.097-.343-.027-.084-.063-.19-.078-.256.076-.003.14-.011.19-.015.16-.008.363-.008.512-.008.11 0 .209 0 .281-.004l.126-.003-.073-.103c-.449-.652-.726-1.338-.996-1.998l-.063-.152c-.032-.088-.067-.176-.088-.248.025.012.054.027.084.05.93.59 2.058.942 3.023.942 1.846 0 3.073-1.297 3.777-2.383.8-1.235 1.348-2.886 1.426-4.3.002-.03.021-.183.04-.362.042-.393.107-.923.107-1.064V11.05l-.104-1.243h.474l.025.008.023-.023c.013-.011 1.357-1.456 1.357-1.563 0-.034-.01-.06-.015-.076z" transform="translate(0 .5) translate(5.997 5.999)"/>
            <path d="M7.422 8.202l-.057.008-.004.008c-.034.068-.067.118-.1.137-.033.022-.102.038-.201.056-.027.005-.046.005-.054.005-.01 0-.019.004-.026.004-.013 0-.017-.004-.017-.004-.002-.005-.006-.008-.006-.023v-.557c0-.034.008-.053.015-.065.012-.007.034-.018.08-.03l.016-.004v-.05l-.355.054v.05H6.755c.029 0 .04.004.046.007.004.004.011.02.011.065v.514c0 .05-.007.07-.013.076-.007.005-.028.016-.078.031l-.008.004v.046l.645-.099.064-.233zM7.565 7.668c.01 0 .021 0 .029-.007.019-.007.034-.02.046-.035.015-.019.023-.037.023-.056 0-.031-.015-.043-.027-.046-.015-.012-.03-.012-.05-.008-.023.011-.038.023-.05.042-.014.02-.018.038-.018.057 0 .023.011.034.023.046.007.007.014.007.024.007M7.744 8.237H7.73c-.038.011-.06.007-.06.007s-.01-.007-.01-.065V7.764l-.006-.012h-.017c0 .008-.004.008-.02.02-.026.019-.072.053-.139.099l-.028.019v.05l.019-.02c.021-.004.03-.011.034-.011.004-.008.008-.008.012-.008.007-.004.015-.008.019 0 0 .008.004.02.003.05v.267c0 .05-.007.065-.015.072-.004.011-.023.027-.068.05l-.012.003v.043l.303-.115v-.034zM8.044 7.949c0-.024.02-.047.061-.077.05-.029.091-.053.132-.063.032-.004.059-.009.075-.009.046 0 .085.015.105.043.041.049.07.106.07.173 0 .068-.029.13-.077.188-.038.058-.1.096-.194.116-.034.01-.069.014-.114.014-.048 0-.056-.02-.058-.024v-.361zm-.228-.37c0 .005.013.014.013.048v.75c0 .049.098.053.131.053h.038c.063 0 .128-.004.19-.02.16-.038.288-.105.382-.196.09-.096.141-.198.141-.304 0-.095-.041-.168-.114-.21-.083-.054-.176-.063-.285-.04-.081.025-.158.059-.227.111-.014.015-.024.024-.031.034v-.376l-.008-.01-.009-.013-.024.004s-.011 0-.108.048c-.059.03-.128.058-.201.087h-.017v.068l.084-.03c.04-.01.045-.004.045-.004z" transform="translate(0 .5) translate(5.997 5.999)"/>
            <path d="M8.597 7.731c.047-.074.102-.108.18-.122.015 0 .032-.006.043-.006.058 0 .09.034.117.068.02.013.031.06.04.108l-.418.047c.008-.028.023-.068.038-.095m.125.775c.024 0 .055-.007.086-.007.125-.02.242-.08.333-.168.085-.074.152-.169.18-.257l.007-.026-.09-.014-.012.014c-.043.075-.09.128-.144.168-.051.041-.114.068-.188.074-.093.021-.172-.006-.234-.067-.067-.047-.11-.149-.114-.283l.731-.095v-.02c0-.12-.047-.222-.136-.282-.086-.048-.184-.074-.3-.054-.158.012-.282.08-.38.195-.098.114-.141.243-.141.378 0 .128.043.236.122.323.07.081.164.121.28.121" transform="translate(0 .5) translate(5.997 5.999)"/>
            <path d="M9.15 7.958h-.023c-.027 0-.047 0-.058-.007-.011-.012-.019-.03-.019-.061v-.252c0-.019.008-.042.025-.057.023-.027.036-.034.04-.034 0 0 .007 0 .024.023.018.011.033.019.052.019.02 0 .032-.008.046-.02.011-.015.017-.03.017-.053 0-.015-.01-.03-.021-.045-.015-.015-.034-.02-.057-.02-.027 0-.054.008-.08.03-.016.012-.03.031-.046.047v-.053c0-.004 0-.008-.002-.012-.002-.007-.009-.012-.017-.012l-.007.005c-.02.003-.039.015-.058.019-.007.003-.023.011-.045.018l-.073.023v.046l.015-.003c.008 0 .012 0 .02-.005.003 0 .007-.003.013-.003.01 0 .017.008.025.022.004.012.007.035.007.069v.255c0 .038-.005.046-.011.054-.006 0-.019.007-.061.011h-.011v.046l.304-.004v-.046zM9.306 7.57l.047.003v.298c0 .038.006.064.013.087.016.043.05.066.096.066h.008c.019 0 .038 0 .057-.012.019-.008.042-.027.06-.054l.02-.018-.035-.031-.007.012-.029.019c-.006.004-.01.004-.02.004H9.51c-.018 0-.03-.009-.038-.023-.002-.02-.003-.035-.003-.061v-.283l.107.008v-.069l-.106-.003v-.115c0-.004 0-.015-.005-.015-.004-.004-.01-.008-.015-.008h-.008l-.005.008c-.039.05-.064.08-.075.091-.006.012-.024.027-.047.039-.01.011-.014.015-.018.015-.004.003-.004.011-.004.011 0 .008 0 .016.002.02.002.003.006.003.01.01M10.158 8.3c0 .014-.004.028-.043.051-.039.015-.077.03-.113.015-.027 0-.05-.015-.066-.038-.039-.028-.055-.073-.055-.117 0-.06.035-.104.126-.14.038-.015.094-.037.151-.045V8.3zm-.355-.281c-.105.052-.16.125-.16.236 0 .06.02.125.074.17.039.059.098.081.164.089.059.013.126.008.188-.022.03-.008.062-.037.101-.06 0 .037.009.06.028.082.027.029.067.059.12.073h.032c.031 0 .07-.014.102-.03.023-.014.05-.03.078-.05h.008v-.111l-.047.021c-.028.016-.043.016-.043.016h-.028c-.016 0-.023-.008-.031-.023-.008-.014-.012-.03-.012-.073V7.96c0-.09-.005-.163-.035-.207-.05-.104-.155-.162-.285-.178-.117-.022-.215-.015-.278.038-.062.036-.097.095-.097.14 0 .03.011.051.035.089.016.014.039.043.082.043.02.009.047 0 .06 0 .038-.014.057-.043.057-.102 0 0-.003-.016-.003-.03-.005-.023-.005-.038-.005-.038 0-.028.005-.028.032-.037.024-.014.05-.014.078-.014.062.014.105.036.125.066.012.023.015.067.015.134v.066c-.18.037-.297.059-.355.089z" transform="translate(0 .5) translate(5.997 5.999)"/>
            <path d="M10.374 7.928c.028-.03.058-.043.09-.043.019 0 .038 0 .062.007.032.005.07.024.11.054.031.037.055.073.055.128v.309s0 .012-.036.03c-.009.006-.027.012-.043.012-.008 0-.024-.006-.04-.006-.047-.006-.081-.024-.113-.042-.03-.019-.057-.049-.082-.08-.043-.06-.061-.133-.061-.205 0-.073.018-.134.058-.164m-.04.515h.005c.038.025.074.066.124.08.07.006.125.006.176 0 .012-.007.028-.018.052-.018v.054l.022.024.157-.019.151-.005v-.067h-.015c-.007 0-.011 0-.02-.006h-.015c-.047-.018-.058-.024-.062-.03-.008-.006-.017-.019-.017-.05l.004-.581v-.079l.005-.164-.005-.006-.02-.017h-.061c-.015 0-.043.005-.066.005h-.043l-.146-.005v.066l.028.006c.02.006.032.006.04.006h.011c.028.011.04.019.043.024 0 0 .009.012.009.043v.175c-.009-.012-.017-.012-.024-.024-.039-.018-.087-.037-.133-.048-.126-.03-.226-.012-.305.054-.086.067-.128.152-.128.255 0 .079.03.164.101.242.03.043.09.055.132.085M16.057 7.816c.031-.034.066-.043.117-.043.015 0 .04 0 .056.005.043.004.084.028.13.058.044.033.066.073.066.136v.3c0 .02-.011.025-.036.04-.03.02-.069.02-.11.004-.098-.014-.167-.048-.217-.117-.047-.067-.075-.14-.075-.213 0-.077.024-.13.069-.17m.111.602c.077.01.132.01.191 0 .017-.005.038-.014.067-.029v.063l.02.02.17-.01.17-.01v-.058l-.017-.005H16.727c-.052-.015-.066-.024-.073-.034-.007-.01-.013-.024-.013-.058l.007-.587v-.175l-.007-.087-.028.004c-.022.005-.043.005-.043.005h-.29v.059h.07s.006.005.012.005c.028.004.045.01.053.014.002.014.01.02.01.058v.185c-.01-.005-.028-.02-.035-.025-.048-.024-.1-.043-.152-.053-.132-.025-.25-.005-.345.053-.085.068-.13.151-.13.258 0 .087.037.17.106.247.077.077.18.136.3.16M16.896 8.096c.017 0 .031.004.035.015.003.004.005.02.005.046v.29c0 .038-.01.049-.011.054-.006.003-.02.003-.048.003h-.011v.045l.27.035v-.042l-.01-.004c-.024-.004-.04-.008-.05-.015-.008-.012-.014-.027-.014-.053v-.306l.042-.034c.021-.011.04-.015.06-.015.026.007.045.015.056.038.012.02.018.05.018.08v.237c0 .049-.01.06-.014.06-.004.008-.02.016-.047.016h-.013v.038l.266.034v-.046h-.012c-.022 0-.038-.008-.046-.015-.01-.011-.015-.03-.015-.053v-.267c0-.077-.02-.134-.064-.168-.023-.019-.046-.03-.076-.03-.035-.008-.065 0-.1.015-.015.007-.038.023-.06.042V8.03c-.005-.011-.01-.02-.02-.02l-.055.012c-.057.016-.094.023-.109.027h-.011v.046h.034z" transform="translate(0 .5) translate(5.997 5.999)"/>
            <path d="M16.632 7.998c.04-.045.093-.058.165-.026.085.026.14.065.178.137.012.02.02.066.032.104l-.414-.13c.007-.046.016-.071.039-.085m.195.841c.063.014.128.033.184.033.06 0 .105-.02.156-.033.082-.044.155-.104.19-.182l.01-.013-.083-.052-.02.013c-.038.052-.094.085-.14.097-.047.013-.113.013-.179-.012-.095-.039-.18-.098-.25-.176-.063-.085-.102-.202-.118-.32l.728.24v-.038c0-.118-.04-.221-.122-.313-.086-.11-.188-.162-.301-.208-.153-.046-.282-.033-.382.032-.103.065-.149.164-.149.306 0 .118.038.241.124.36.083.123.197.208.352.266M14.818 7.463c.057-.065.124-.095.208-.095h.007c.08.005.152.035.214.104.06.07.088.185.088.334 0 .149-.028.258-.088.328-.058.055-.125.09-.206.09h-.008c-.086-.005-.158-.035-.215-.11-.06-.074-.092-.184-.092-.329 0-.148.032-.253.092-.322m.215.845h.02c.125 0 .238-.035.327-.109.111-.1.165-.23.165-.389 0-.153-.054-.283-.155-.392-.1-.084-.22-.134-.357-.134-.138-.004-.258.035-.356.114-.104.094-.156.218-.156.377 0 .155.05.285.145.379.096.094.222.149.367.154" transform="translate(0 .5) translate(5.997 5.999)"/>
            <path d="M15.627 8.07h-.01c-.034-.005-.055-.009-.066-.02-.014-.011-.021-.038-.021-.065v-.252c0-.022.009-.037.028-.049.017-.023.027-.023.035-.023 0 0 .007 0 .026.016.017.019.035.03.048.03.02.004.034 0 .048-.015.011-.008.018-.023.018-.046 0-.02-.007-.038-.022-.053-.012-.016-.031-.023-.054-.023-.027-.011-.055 0-.08.02-.015.007-.03.018-.047.037v-.054l-.002-.014c-.004-.012-.008-.016-.016-.016h-.007c-.02.004-.036.012-.057.016-.008.003-.023.01-.046.014l-.077.016v.042l.016-.004h.031c.015.004.02.011.028.023.006.019.01.038.01.08v.248c0 .034-.012.045-.012.045-.006.008-.013.012-.042.012h-.02l-.01-.004v.046l.3.038v-.046zM13.74 7.57c.003 0 .011.003.023.026l.148.283c.004 0 .006.003.006.003v.008c0 .008-.006.03-.03.087-.026.062-.041.07-.045.07-.003.003-.015.003-.03.003-.019-.004-.033-.004-.042 0-.015.004-.03.011-.042.027-.01.008-.015.023-.015.038 0 .038.019.045.033.053h.024c.01 0 .018 0 .034-.004.036-.011.069-.038.094-.08.024-.034.047-.09.076-.163l.147-.44.015-.03c.006-.007.011-.011.023-.018l.007-.004v-.046l-.156.053v.038l.032-.004c.004 0 .008-.004.008-.004.004 0 .006.004.006.004l-.002.016-.004.015-.078.24-.095-.183c-.004-.008-.008-.011-.01-.015v-.012s0-.003.015-.015c.006-.003.018-.003.033-.011l.007-.004v-.042l-.222.069v.042l.013-.008c.013-.004.023-.004.027.008M21.803 9.632l.705-.53c.156-.122.313-.244.43-.332.088-.068.146-.106.177-.137l.015-.003v-.004c.037-.039.034-.046.028-.069l-.024-.096-1.402.87.07.3zM1.135 8.618L2.5 9.632 2.565 9.331 1.135 8.45zM3.149 7.154L1.832 6.38 1.832 6.548 3.297 7.608zM13.117 17.82h-.406c-.01-.026-.019-.08-.017-.137 0-.057.011-.11.017-.13h.406c-.007.027-.015.073-.015.13 0 .057.008.107.015.137zm-.236.214l.011-.058h.133l.042.058h-.186zm-.189 0h-.124l.027-.11.007.026.005.026h.098l-.013.058zm-.284-.736c-.008-.027-.015-.076-.015-.133 0-.061.008-.111.015-.134h.402c-.005.03-.013.073-.013.134 0 .057.008.103.013.133h-.402zm.027.496c0 .007.002.01.004.026h-.408c-.004-.026-.012-.072-.016-.118v-.019l.004-.053c.008-.042.012-.07.017-.077h.403c-.008.027-.015.073-.015.13 0 .038 0 .076.01.11zm-.05.24h-.133l.013-.058h.132l-.011.058zm-.32 0h-.114l.013-.058h.11l-.009.058zm-.336-.736c-.009-.027-.017-.076-.017-.133 0-.062.01-.111.017-.134h.405c-.008.03-.015.073-.015.134 0 .057.007.103.015.133h-.405zm.035.736h-.147l.015-.058h.145l-.013.058zm-.332 0l-.057-.058h.07l-.013.058zm-.103-.35c0-.058.012-.112.02-.131h.403c-.007.027-.015.073-.015.13 0 .057.008.107.015.137h-.404c-.007-.026-.019-.08-.019-.137zm1.863.292h.09l-.014-.041c-.019-.069-.029-.141-.029-.218 0-.069.01-.148.029-.213l.013-.042h-.599l.002-.008h.294l-.01-.042c-.022-.064-.034-.14-.034-.217 0-.072.012-.145.035-.218l.009-.037h-.109l.138-.035-.374-.13-.036.165h-.293l-.005.023c-.02.076-.034.152-.034.232 0 .084.014.16.034.236l.005.023h.192v.008h-.433l.002-.008h.23l-.01-.042c-.022-.064-.033-.14-.033-.217 0-.072.011-.145.032-.218l.012-.037h-.044l.134-.035-.367-.13-.042.164h-.354l-.006.024c-.023.076-.033.152-.033.232 0 .084.01.16.033.236l.006.023h.255l-.004.008h-.644l-.006.026c-.024.07-.036.149-.036.229 0 .03.002.073.008.107h-.652l.133.34h.171l.214.296h2.139l.424-.426h-.393l-.04-.058zM11.125 2.279c.007.003.015.003.026.003.027 0 .057-.015.084-.03.004.046.042.088.092.088.05 0 .09-.042.09-.092 0-.019-.012-.042-.025-.057.03.008.057.019.057.023l.022-.027-.032-.038c-.011-.019-.036-.03-.072-.03-.055 0-.123.019-.164.034-.023.011-.056.015-.098.015-.034 0-.064-.004-.064-.004h-.035l.015.027s.035.072.104.088" transform="translate(0 .5) translate(5.997 5.999)"/>
        </g>
        <path d="M50.028 17.907L46.016 17.908 46.014 10.956 47.313 10.956 47.315 16.752 50.028 16.751z" transform="translate(0 .5)"/>
        <g>
            <path d="M7.273 6.532c.275 0 .49-.081.645-.243.154-.162.231-.373.231-.634v-.496h-.64c-.323 0-.57.068-.742.202-.172.134-.258.305-.258.511 0 .44.255.66.764.66zm.928.247c-.24.447-.694.67-1.36.67-.496.001-.89-.143-1.182-.431-.293-.29-.439-.654-.439-1.094 0-.495.186-.884.557-1.166.37-.282.907-.423 1.609-.423h.763v-.32c0-.289-.077-.51-.227-.66-.152-.151-.41-.228-.774-.227-.557 0-1.07.155-1.537.465V2.448c.391-.24.955-.362 1.691-.362 1.417 0 2.125.66 2.126 1.98v3.341H8.202V6.78zM17.05 7.177c-.363.214-.817.32-1.36.32-.805 0-1.457-.253-1.955-.762-.5-.508-.749-1.151-.75-1.928.007-.764.257-1.407.749-1.93.49-.522 1.162-.784 2.016-.784.508 0 .941.096 1.3.288v1.093c-.344-.22-.737-.33-1.177-.33-.48.001-.87.152-1.164.455-.296.303-.448.705-.454 1.207.014.495.163.894.449 1.197.285.302.672.453 1.16.453.427 0 .822-.118 1.186-.352v1.073zM22.6 7.401l-1.249.001v-.856c-.275.606-.81.908-1.608.908-.53 0-.942-.15-1.238-.453-.296-.302-.444-.732-.444-1.29l-.002-3.537h1.238l.001 3.249c0 .33.081.58.243.753.162.171.384.257.665.257.358 0 .638-.12.841-.36.202-.242.304-.606.304-1.095l-.001-2.805h1.248L22.6 7.4zM25.23 7.4L23.992 7.401 23.989.109 25.227.108zM29.51 7.275c-.24.117-.55.175-.928.175-1.128.001-1.692-.57-1.692-1.71l-.001-2.64h-.784V2.17h.783V.913l1.238-.001V2.17h1.3v.928h-1.3l.001 2.661c0 .22.06.387.176.5.117.113.278.17.485.17.261 0 .502-.072.722-.216v1.062zM35.018 7.396h-1.249v-.855c-.274.605-.81.908-1.608.908-.53 0-.942-.15-1.238-.453-.296-.303-.444-.732-.444-1.29l-.001-3.537h1.237l.001 3.249c0 .33.081.58.243.752.162.172.384.258.665.258.358 0 .638-.12.841-.361.202-.242.304-.606.304-1.094l-.001-2.805h1.248l.002 5.228zM37.596 7.395h-1.248l.009-5.229h1.237v.928c.241-.646.68-.97 1.321-.97.144 0 .261.01.35.03v1.197c-.158-.068-.332-.103-.525-.103-.337 0-.613.139-.825.413-.213.275-.32.62-.32 1.032l.001 2.702zM41.794 6.517c.275 0 .49-.081.644-.243.156-.162.232-.373.232-.634v-.496h-.64c-.323 0-.57.068-.742.202-.171.134-.257.305-.257.51 0 .441.254.66.763.66zm.928.247c-.24.447-.694.67-1.36.67-.496 0-.89-.143-1.182-.432-.292-.288-.439-.653-.439-1.093 0-.495.186-.884.557-1.166.37-.282.907-.423 1.609-.423h.763V4c0-.289-.076-.51-.228-.66-.151-.151-.409-.228-.773-.227-.557 0-1.07.155-1.537.465V2.433c.392-.24.956-.362 1.69-.362 1.418 0 2.126.66 2.127 1.98v3.341h-1.227v-.628zM2.623 12.138c-.295 0-.551.11-.768.326-.217.217-.355.532-.417.944l2.197-.001v-.155c-.014-.336-.106-.606-.274-.81-.169-.202-.415-.304-.738-.304zm1.859 4.022c-.365.227-.891.34-1.579.341-.832 0-1.488-.247-1.97-.741-.481-.495-.722-1.134-.723-1.918 0-.832.227-1.486.68-1.96.454-.475 1.021-.712 1.702-.713.68 0 1.22.206 1.62.618.399.413.598 1.014.598 1.805 0 .193-.024.44-.072.743h-3.28c.09.38.277.668.563.867.286.2.641.3 1.068.299.55 0 1.014-.138 1.392-.413v1.072zM9.36 14.941c0 .489-.176.87-.526 1.145-.35.276-.818.413-1.403.414-.646 0-1.169-.106-1.568-.32v-1.134c.46.31.96.464 1.496.464.227 0 .404-.043.53-.13.128-.086.192-.204.192-.356 0-.09-.021-.17-.062-.242-.042-.072-.12-.143-.238-.212-.117-.068-.208-.118-.273-.149-.066-.031-.195-.087-.387-.17-.02-.007-.036-.013-.046-.02-.01-.007-.026-.014-.047-.021l-.051-.02c-.764-.344-1.146-.839-1.146-1.486 0-.48.182-.859.546-1.134.365-.275.822-.413 1.372-.413.53 0 .97.075 1.32.226v1.093c-.343-.206-.773-.309-1.289-.309-.213 0-.38.047-.5.14-.12.093-.18.21-.18.355 0 .056.009.107.026.155.017.049.048.095.093.14.044.044.087.084.128.119.042.034.1.07.176.107l.196.099c.055.027.13.062.227.103.096.041.172.075.227.102.364.179.653.378.867.598.213.22.32.505.32.856M13.897 13.856c0 .475.12.86.361 1.155.241.296.54.443.899.443.37 0 .68-.143.927-.428.248-.285.371-.7.37-1.243 0-.53-.13-.927-.391-1.191-.262-.265-.561-.397-.897-.397-.358 0-.66.147-.903.439-.244.292-.366.7-.366 1.222zm3.797 2.588h-1.238v-.815c-.357.592-.887.888-1.588.888-.688 0-1.233-.26-1.636-.783-.402-.523-.603-1.155-.604-1.898 0-.825.212-1.48.634-1.965.423-.485.964-.728 1.624-.728.68 0 1.204.292 1.568.876V9.152h1.237l.003 7.292zM21.168 12.13c-.296 0-.551.11-.768.325-.217.217-.356.532-.418.945l2.197-.001v-.155c-.014-.337-.105-.607-.273-.81-.169-.202-.415-.304-.738-.303zm1.858 4.023c-.364.226-.89.34-1.578.34-.832 0-1.489-.247-1.97-.742-.482-.494-.723-1.134-.723-1.918 0-.832.227-1.484.68-1.96.454-.475 1.021-.711 1.702-.712.68 0 1.22.206 1.62.618.398.413.598 1.014.598 1.805 0 .192-.024.44-.072.743h-3.28c.09.379.277.668.563.867.285.2.641.299 1.068.299.55 0 1.014-.138 1.392-.413v1.073zM29.937 16.314c-.24.117-.55.176-.928.176-1.128 0-1.693-.57-1.693-1.711v-2.64h-.784v-.929h.783V9.952h1.237v1.258l1.3-.001v.928l-1.3.001.002 2.66c0 .22.058.387.175.5.118.114.279.171.485.171.262 0 .502-.073.722-.217v1.062zM31.978 13.838c0 .481.107.884.32 1.207.213.323.516.484.908.484.406 0 .711-.158.917-.475.207-.316.31-.718.31-1.207 0-.501-.1-.913-.3-1.232-.2-.32-.512-.48-.939-.48-.392.001-.692.163-.902.485-.21.324-.314.73-.314 1.218m3.744-.032c0 .79-.221 1.44-.665 1.949-.443.51-1.064.764-1.861.764-.79 0-1.408-.247-1.852-.742-.444-.494-.666-1.127-.666-1.897 0-.798.23-1.456.69-1.976.46-.519 1.07-.779 1.826-.78.804 0 1.427.253 1.867.758.44.506.66 1.147.661 1.924M37.774 13.846c0 .474.12.86.362 1.155.24.295.54.443.898.443.37 0 .68-.143.927-.428.248-.286.372-.7.372-1.243 0-.53-.132-.927-.393-1.192-.262-.265-.56-.397-.898-.396-.358 0-.658.146-.902.438-.244.293-.366.7-.366 1.223zm3.798 2.587h-1.238v-.814c-.359.591-.887.887-1.59.887-.687 0-1.231-.26-1.634-.783-.403-.522-.604-1.155-.605-1.897 0-.825.212-1.48.634-1.965.423-.485.965-.728 1.624-.729.682 0 1.204.292 1.57.876l-.002-2.867h1.238l.003 7.292zM43.932 13.833c0 .481.107.883.32 1.206.213.324.516.485.908.485.406 0 .712-.159.918-.475.206-.317.309-.719.309-1.207 0-.502-.1-.913-.3-1.232-.2-.32-.512-.48-.938-.48-.392 0-.693.162-.903.485-.21.324-.314.73-.314 1.218m3.744-.033c0 .791-.221 1.44-.664 1.95-.444.509-1.064.763-1.862.764-.791 0-1.408-.247-1.852-.742-.443-.495-.665-1.127-.666-1.898 0-.797.23-1.455.69-1.975.461-.52 1.07-.78 1.826-.78.805 0 1.427.253 1.868.758.44.505.66 1.146.66 1.923M52.153 14.922c0 .489-.175.87-.526 1.146-.35.275-.818.412-1.402.412-.647.001-1.17-.105-1.568-.319v-1.134c.46.309.958.464 1.495.464.227 0 .404-.044.53-.13.128-.086.191-.204.191-.356 0-.09-.02-.17-.061-.242-.042-.072-.12-.143-.238-.211-.116-.069-.207-.119-.273-.15-.066-.031-.195-.087-.387-.17-.02-.007-.036-.013-.046-.02-.01-.007-.026-.014-.047-.02-.02-.008-.038-.014-.052-.021-.763-.344-1.145-.839-1.145-1.486 0-.48.182-.859.546-1.134.365-.275.822-.413 1.372-.413.53 0 .97.075 1.32.226v1.093c-.343-.206-.773-.309-1.289-.308-.212 0-.38.046-.5.139-.12.093-.18.211-.18.356 0 .055.008.106.025.155.018.048.049.094.094.139.044.045.087.084.129.119.041.034.1.07.175.108l.197.098c.054.027.13.062.226.103.096.041.172.075.227.102.364.179.653.379.866.599.213.22.32.505.32.855M83.42 10.443L82.538 10.443 82.539 7.007 82.602 5.369 82.593 5.369 80.785 10.443 79.984 10.443 78.176 5.369 78.166 5.369 78.238 7.007 78.238 10.443 77.348 10.443 77.348 4.506 78.779 4.506 79.974 7.942 80.388 9.354 80.406 9.354 80.829 7.942 82.017 4.506 83.421 4.506zM85.876 10.443h-.962V5.945h.963v4.498zm-.953-5.411c-.114-.105-.17-.253-.17-.445s.056-.34.17-.441c.114-.102.273-.153.477-.153.204 0 .361.051.472.153.111.102.167.249.167.44 0 .193-.056.341-.167.446-.11.105-.268.157-.472.157-.204 0-.363-.052-.477-.157zM90.883 6.287c.315.288.472.701.472 1.241v2.915h-.962V7.834c0-.791-.321-1.187-.963-1.187-.336 0-.624.115-.864.346-.24.231-.36.587-.36 1.066v2.384h-.962V5.945h.855l.045.747c.15-.282.356-.492.62-.63s.564-.207.9-.207c.498 0 .904.144 1.22.432M96.61 7.114l-.9.36c-.156-.57-.507-.854-1.053-.854-.402 0-.714.138-.935.414-.223.276-.333.665-.334 1.169 0 .504.11.89.333 1.16.222.27.534.406.936.406.306 0 .552-.076.737-.226.186-.15.31-.366.37-.647l.88.296c-.13.42-.365.749-.7.986-.337.237-.76.355-1.27.355-.707 0-1.261-.207-1.659-.62-.399-.414-.599-.987-.599-1.719 0-.732.199-1.304.595-1.718.395-.414.944-.62 1.646-.62.984 0 1.634.419 1.952 1.258M101.71 5.945v4.498h-.855l-.036-.729c-.306.546-.84.819-1.6.819-.487 0-.878-.134-1.175-.4-.297-.267-.446-.677-.446-1.228v-2.96h.964l-.001 2.708c0 .396.078.676.234.84.156.166.387.248.693.248.366 0 .667-.115.904-.346.237-.23.355-.571.355-1.021V5.945h.964zM104.004 9.13c0 .222.032.376.1.463.065.087.188.13.368.13.114 0 .211-.007.292-.022.081-.015.182-.047.302-.095l-.108.774c-.204.102-.453.153-.747.153-.402 0-.697-.102-.886-.306-.189-.204-.284-.525-.284-.962V3.92h.964V9.13zM108.485 10.146c-.144.12-.32.215-.527.283-.207.07-.43.104-.67.104-.414 0-.745-.104-.994-.31-.249-.208-.377-.53-.382-.967V6.7h-.854v-.755h.854V4.892l.963-.27v1.323h1.574V6.7h-1.575v2.394c0 .216.06.376.176.48.117.105.277.158.481.158.276 0 .519-.096.73-.287l.224.701zM113.325 5.945v4.498h-.855l-.036-.729c-.306.546-.84.819-1.6.819-.487 0-.878-.134-1.175-.4-.297-.267-.446-.677-.446-1.228v-2.96h.963v2.708c0 .396.078.676.234.84.156.166.386.248.693.248.365 0 .667-.115.904-.346.237-.23.355-.571.355-1.021V5.945h.963zM117.5 5.945l-.154.882c-.138-.078-.326-.117-.566-.117-.192 0-.374.05-.544.153-.172.102-.312.255-.423.458-.111.204-.167.45-.167.738v2.384h-.963V5.945h.82l.08.81c.252-.6.726-.9 1.422-.9.21 0 .375.03.495.09M120.396 9.57c.246-.156.37-.363.37-.62v-.54l-.982.198c-.312.06-.543.144-.692.252-.15.108-.226.252-.226.431 0 .168.06.296.176.383.116.087.283.13.5.13.324 0 .608-.078.854-.234m1.997.207l-.063.648c-.162.072-.347.108-.557.108-.258 0-.464-.051-.617-.153-.152-.102-.253-.273-.3-.513-.139.21-.343.373-.613.49-.27.118-.572.176-.908.176-.438 0-.792-.102-1.062-.306-.27-.204-.405-.495-.405-.873 0-.353.147-.652.44-.895.295-.243.733-.415 1.315-.517l1.142-.198v-.243c0-.275-.08-.493-.242-.652-.162-.159-.387-.238-.675-.238-.594 0-.981.27-1.16.81l-.747-.396c.107-.36.328-.645.66-.855.334-.21.743-.315 1.229-.315.581 0 1.043.135 1.385.405.342.27.513.666.513 1.187V9.48c0 .114.025.198.076.252.051.054.137.081.257.081.131 0 .242-.012.332-.036" transform="translate(0 .5) translate(45.478 10.497)"/>
        </g>
    </g>
</svg>
