<svg xmlns="http://www.w3.org/2000/svg" xmlns:xlink="http://www.w3.org/1999/xlink" width="156" height="42" viewBox="0 0 156 42">
    <defs>
        <path id="prefix__a" d="M0.084 0.133L4.946 0.133 4.946 8.541 0.084 8.541z"/>
    </defs>
    <g fill="none" fill-rule="evenodd">
        <path fill="#FEFEFE" d="M128.402 27.772c.001.423-.11.742-.331.949-.23.217-.56.327-.978.326l-1.608-.004-.006-2.634 1.609.003c.414.001.73.115.964.35.114.114.201.257.26.426.06.176.09.372.09.584zm-.62 2.25c.49-.112.89-.348 1.19-.707.34-.404.512-.923.51-1.54 0-.722-.227-1.313-.673-1.759-.43-.43-1.002-.649-1.7-.65l-2.035-.004c-.19 0-.352.065-.482.194-.13.13-.195.292-.194.482l.014 7.19c0 .145.055.272.162.38.107.107.235.161.38.161.145 0 .272-.053.378-.16.107-.107.161-.234.161-.379l-.006-3.14 1.126.002 1.933 3.407c.101.182.258.278.454.279.095 0 .185-.026.27-.078.08-.05.144-.118.19-.199.045-.081.068-.17.068-.263 0-.092-.022-.177-.064-.252l-1.682-2.965zM134.687 25.381l-4.583-.009c-.145 0-.27.052-.374.155-.102.103-.155.228-.154.373 0 .146.053.27.158.37.103.098.228.148.372.148l1.745.004.014 6.821c0 .145.055.272.162.38.107.107.235.161.38.162.145 0 .272-.054.379-.16.106-.107.16-.235.16-.38l-.014-6.82 1.758.003c.143 0 .268-.05.37-.147.105-.1.158-.224.157-.37 0-.144-.052-.27-.156-.374-.104-.103-.23-.155-.374-.156M141.238 25.395c-.113 0-.218.033-.31.1-.092.066-.158.155-.198.266l-1.91 6.062-1.947-6.065-.002-.006c-.04-.11-.107-.2-.2-.266-.092-.067-.197-.101-.31-.101-.163 0-.294.053-.39.16-.092.102-.138.226-.138.368 0 .033.003.063.009.09.005.024.012.05.021.079l2.382 7.301c.097.27.293.414.567.415.282 0 .481-.142.579-.416l2.348-7.288c.01-.028.016-.054.021-.08.006-.028.008-.058.008-.09 0-.153-.053-.281-.159-.381-.102-.098-.227-.148-.37-.148" transform="translate(4 3.5)"/>
        <g transform="translate(4 3.5) translate(141.766 25.269)">
            <mask id="prefix__b" fill="#fff">
                <use xlink:href="#prefix__a"/>
            </mask>
            <path fill="#FEFEFE" d="M4.427 7.052c-.047 0-.094.004-.14.014-.048.011-.099.032-.154.065-.187.123-.38.22-.57.287-.185.066-.379.1-.575.1-.569-.002-1.02-.166-1.341-.487-.316-.322-.476-.778-.477-1.355L1.164 2.99c-.001-.57.158-1.025.47-1.352.322-.32.773-.483 1.34-.481.198 0 .392.032.579.096.19.065.381.16.573.286.052.03.103.052.15.062.045.01.091.015.14.015.154 0 .28-.05.376-.15.093-.1.14-.222.14-.366 0-.194-.083-.346-.24-.44-.275-.166-.556-.296-.836-.387-.284-.092-.58-.14-.883-.14C2.107.131 1.402.397.875.924.348 1.451.082 2.157.084 3.022L.089 5.64c.002.85.27 1.556.8 2.101.529.529 1.235.798 2.1.8.303 0 .6-.045.884-.137.278-.09.559-.218.834-.383.157-.093.24-.245.239-.44 0-.151-.051-.279-.151-.38-.1-.099-.223-.15-.368-.15" mask="url(#prefix__b)"/>
        </g>
        <path fill="#FEFEFE" d="M116.045 34.153c-.152 0-.277-.124-.277-.276V.277c0-.153.125-.277.277-.277.153 0 .277.124.277.277v33.6c0 .152-.124.276-.277.276M84.972 26.87c-.127-2.226-1.873-4.535-3.935-5.59-1.67-.858-2.848-.718-3.53-.081-.37.344-.627 1.072-.431 2.059.256 1.293 1.14 2.59 2.39 3.082 1.035.407 2.232-.11 1.387-1.22-.366-.482-.837-.558-1.238-.704-.593-.212-.883-.528-.99-1.015-.147-.676.49-1.042 1.36-.673.629.268 1.495.839 2.125 1.818.616.955.67 1.818.365 2.496-.206.458-.693.926-1.623.937-1.16.015-2.51-.39-3.806-1.957-.211-.255-.408-.117-.33.023.642 1.138 1.873 2.57 2.612 3.1.814.586 2.123.826 3.067.678 1.195-.187 2.682-1.092 2.577-2.953" transform="translate(4 3.5)"/>
        <path fill="#FEFEFE" d="M94.617 32.885c-1.191-.334-2.958-1.393-3.802-3.135-.043-.094-.086-.189-.127-.287-.61-1.452-.761-3.386-.044-5.508.542-1.601.371-2.18-1.728-2.555-.034-.006-.072-.015-.104-.022-2.814-.543-9.672-3.524-12.551-7.954-.377-.581-.685-1.19-.913-1.816-.102-.284-.26-.091-.302.038-.555 1.678-.839 3.228-.846 4.948-.058 1.765.144 3.561.647 5.26.17.561.331 1.002.508 1.48.111.3.265.1.234-.155-.203-1.551.448-3.003 1.564-3.621.184-.103.697-.493 1.666-.493.976 0 2.114.353 3.357 1.09 2.692 1.59 4.785 4.401 4.467 7.527-.247 2.435-2.022 3.74-3.851 3.653-.386-.02-.407.17-.264.25 1.465.835 3.186 1.538 5.077 1.937.352.073 1.042.246 1.559.22.51-.023.494-.203-.09-.456-.728-.314-1.216-.675-1.544-1.126-.3-.41-.124-.876.179-1.326.313-.47.4-.451.913.075 2.477 2.538 4.345 2.613 5.326 2.5.681-.075 1.285-.351.669-.524" transform="translate(4 3.5)"/>
        <path fill="#FEFEFE" d="M96.808 15.771c-1.506.15-2.884.328-4.208.456-1.442.137-2.817.212-4.217.122-1.746-.112-3.53-.482-5.53-1.317-1.679-.702-3.392-1.879-4.422-3.609-.545-.914-1.013-2.393-1.073-3.628-.022-.452-.22-.352-.476.068-.334.554-.684 1.094-.884 1.504-.178.365.554 1.89 1.266 3.059.102.168.207.332.314.49 2.428 3.552 7.74 5.886 10.933 6.75.02.004.04.01.06.016 1.095.298 2.005.614 2.843.674.795.055 1.328-.347 2.312-.777.433-.19.86-.366 1.323-.523.919-.31 1.978-.537 3.518-.605 2.118-.094 3.764.583 4.845 1.968.67.863 1.006 1.909.848 3.296-.209 1.803-1.651 4.113-4.1 5.202-1.807.8-3.22.51-4.087-.084-.475-.325-.785-.74-.904-1.117-.277-.87-.29-1.863.424-2.96.28-.429.648-.818 1.06-1.128.92-.697 2.064-1.006 2.97-.517.758.409.906 2.109-1.207 2.41-.52.077-1.086.577-1.08 1.256.014 1.112 1.044 1.144 1.623 1.048 1.824-.299 2.9-1.684 3.344-2.71.569-1.307.34-2.652-.48-3.628-.556-.653-1.625-1.37-3.354-1.332-.934.022-1.81.212-2.608.564-1.126.495-2.101 1.317-2.874 2.46-1.317 1.96-1.764 4.904.247 6.84.674.649 1.363 1.037 2.049 1.25 1.372.426 2.747.143 4.052-.264 2.721-.846 7.336-4.478 6.517-9.894-.546-3.658-3.697-5.875-9.044-5.34" transform="translate(4 3.5)"/>
        <path fill="#FEFEFE" d="M107.62 18.717c-.096-1.396-.945-4.715-5.945-6.447-2.302-.797-4.899-.726-6.52-.738-.376-.005-.597-.133-.653-.359-.05-.217.055-.525.332-.9.42-.567 1.105-1.213 1.9-1.209 6.064.037 8.66 2.648 10.357 5.185.482.72.628.209.104-1.085-.595-1.47-2.096-3.54-4.57-4.988-1.985-1.159-3.596-1.55-4.977-1.895-.82-.206-1.003-.758-1.22-1.541-.224-.821.056-1.13.724-1 3.921.763 6.218 3.039 7.113 3.968.642.667.818.272.234-.567-.912-1.304-2.132-2.711-4.432-4.203-3.545-2.3-7.5-3.03-10.63-2.606-.785.105-.36.432-.096.518 1.594.515 2.285.924 3.019 1.581 1.13 1.007 1.747 2.9 1.033 4.842-.549 1.485-2.198 3.09-4.72 3.762-.886.235-1.876.357-2.967.317-1.244-.046-3.024-.536-4.013-1.459-.122-.113-.234-.23-.331-.358-.842-1.116-.63-2.663-.269-3.453.725-1.599 2.436-2.693 4.11-2.844 1.345-.118 2.59.178 3.446.885.537.444.906 1.184.591 1.906-.666 1.527-3.016 2.01-3.76 1.708-.944-.386-.51-1.197.13-1.434.721-.264 1.209-.441 1.34-.996.109-.476-.64-1.409-2.502-.722-.797.291-1.593.987-1.82 1.906-.204.801.03 1.705.59 2.262.376.388 1.203 1.075 2.853 1.075.767 0 1.722-.165 2.55-.502 2.875-1.171 3.25-3.448 3.034-4.33-.316-1.294-1.273-2.278-2.797-2.824-1.55-.557-3.135-.712-5.1-.126-1.025.304-3.287 1.37-4.263 3.526-.852 1.88-.497 3.707.27 5.023.264.45.571.84.9 1.151 1.117 1.063 3.55 2.316 6.614 2.735.541.074 1.077.124 1.607.16.923.06 1.822.067 2.685.04 1.987-.062 3.787-.296 5.267-.434 2.522-.239 3.795-.032 5.33.377 3.835 1.023 4.644 3.75 4.873 4.64.246.962.642.395.578-.547M45.914 15.924c.381-.124.712-.302.996-.535.284-.234.51-.526.682-.873.17-.346.258-.749.258-1.21 0-.39-.061-.732-.178-1.026-.117-.293-.272-.547-.468-.762-.195-.215-.423-.403-.682-.565-.26-.161-.525-.309-.8-.447l-1.597-.776c-.392-.196-.685-.419-.878-.667-.198-.25-.295-.56-.295-.933 0-.302.06-.557.184-.769.121-.21.282-.382.483-.512.2-.132.422-.226.659-.28.24-.053.478-.081.712-.081.4 0 .76.043 1.078.126.317.083.623.188.916.315.059.03.127.043.204.043.139 0 .255-.047.353-.147.097-.097.148-.209.148-.337 0-.106-.028-.202-.08-.285-.056-.083-.137-.144-.244-.183-.343-.136-.698-.25-1.07-.344-.371-.094-.806-.14-1.305-.14-.412 0-.802.057-1.174.176-.37.117-.695.285-.974.506-.278.22-.502.489-.667.807-.166.318-.25.676-.25 1.077 0 .351.042.658.125.916.083.259.2.486.352.68.151.198.334.372.55.523.214.152.46.29.733.416l1.598.778c.195.098.385.206.572.323.186.117.349.255.49.411.143.156.257.33.346.52.087.19.132.402.132.637 0 .586-.173 1.042-.52 1.364-.348.324-.878.485-1.592.485-.371 0-.728-.044-1.07-.132-.342-.089-.678-.21-1.011-.368-.06-.029-.129-.043-.207-.043-.136 0-.252.046-.351.139-.097.093-.147.208-.147.345 0 .097.027.187.081.27.053.084.126.145.213.183.391.167.794.302 1.209.403.415.104.845.154 1.283.154.42 0 .82-.06 1.203-.182M53.377 11.68H50.02v-.602c0-.529.148-.941.448-1.238.297-.299.71-.449 1.238-.449.53 0 .94.15 1.23.45.295.296.442.708.442 1.237v.602zm.263-2.464c-.235-.235-.515-.419-.842-.55-.327-.132-.692-.198-1.093-.198s-.767.066-1.1.198c-.333.131-.615.315-.85.55-.234.235-.416.515-.542.843-.128.327-.192.692-.192 1.093v2.273c0 .399.064.765.192 1.09.126.329.308.61.542.845.235.234.517.416.85.55.333.131.699.198 1.1.198.371 0 .73-.038 1.077-.11.347-.073.688-.194 1.02-.36.185-.088.279-.236.279-.44 0-.137-.05-.248-.148-.337-.096-.088-.214-.132-.351-.132-.07 0-.136.014-.205.044-.264.117-.536.216-.814.293-.279.078-.565.119-.858.119-.528 0-.94-.161-1.238-.485-.3-.323-.448-.748-.448-1.275v-.822h3.665c.196 0 .36-.066.491-.198.132-.132.198-.296.198-.491v-.762c0-.4-.064-.766-.19-1.093-.127-.328-.308-.608-.543-.843zM56.557 6.929c.137 0 .264-.064.382-.191.146-.175.332-.263.557-.263.078 0 .147.013.206.036.059.024.117.056.176.096.322.216.65.322.983.322.253 0 .496-.054.724-.162.229-.108.424-.263.58-.47.069-.077.103-.175.103-.292 0-.137-.047-.249-.14-.336-.094-.09-.203-.134-.33-.134-.136 0-.265.065-.382.191-.068.078-.151.142-.248.191-.098.048-.202.074-.307.074-.119 0-.246-.044-.383-.133-.156-.097-.314-.175-.476-.233-.161-.06-.33-.09-.506-.09-.255 0-.496.052-.726.154-.23.103-.422.258-.578.463-.069.108-.102.21-.102.307 0 .139.045.25.138.337.093.088.202.133.33.133M60.164 9.216c-.234-.235-.515-.418-.842-.55-.328-.132-.692-.198-1.093-.198-.802 0-1.54.122-2.213.366-.137.05-.25.132-.338.25-.087.116-.132.25-.132.396v6.13c0 .135.049.252.147.35.097.097.215.148.352.148.136 0 .255-.051.352-.148.097-.098.146-.215.146-.35V9.64c.547-.166 1.108-.25 1.686-.25.527 0 .938.15 1.231.45.293.296.44.708.44 1.237v4.532c0 .135.05.252.148.35.096.097.215.148.352.148.136 0 .253-.051.35-.148.098-.098.149-.215.149-.35V11.15c0-.4-.065-.765-.192-1.092-.127-.328-.307-.608-.543-.843M66.426 14.934c-.55.166-1.106.25-1.672.25-.372 0-.67-.042-.896-.125-.224-.083-.394-.19-.512-.323-.117-.131-.193-.276-.227-.433-.035-.157-.052-.307-.052-.454 0-.147.017-.295.052-.447.034-.151.11-.29.227-.419.118-.126.288-.228.512-.306.226-.078.524-.118.896-.118h1.672v2.375zm-1.672-3.298c-.45 0-.846.046-1.188.138-.342.094-.626.243-.85.448-.43.4-.645.944-.645 1.627 0 .704.214 1.248.645 1.628.47.42 1.147.63 2.038.63.38 0 .755-.032 1.122-.096.366-.062.726-.154 1.077-.27.136-.05.25-.133.337-.249.09-.119.132-.25.132-.395v-4.4c0-.37-.068-.696-.206-.975-.137-.28-.322-.51-.557-.696-.233-.187-.505-.325-.814-.42-.307-.091-.633-.137-.974-.137-.362 0-.728.044-1.099.13-.372.09-.73.24-1.072.456-.165.108-.248.254-.248.44 0 .146.05.261.147.344.097.082.214.125.352.125.077 0 .156-.024.234-.072.284-.168.561-.292.835-.375.274-.082.557-.124.851-.124.469 0 .846.109 1.13.33.283.219.425.548.425.99v.923h-1.672zM69.094 16.108c.137 0 .254-.051.352-.148.097-.097.146-.214.146-.35V6.034c0-.137-.049-.254-.146-.352-.098-.097-.215-.147-.352-.147-.137 0-.256.05-.352.147-.098.098-.147.215-.147.352v9.574c0 .137.049.254.147.351.096.097.215.148.352.148M6.942 19.016c-.239 0-.68.088-.95.665l-.008.023-1.97 4.896-2.08-4.907c-.253-.588-.706-.677-.954-.677-.603 0-.98.397-.98 1.034v8.403c0 .19.068.363.195.5.135.15.322.23.523.23h.131c.193 0 .377-.076.515-.214.14-.141.216-.32.216-.516v-5.555l1.518 3.587c.18.42.524.651.968.651.02 0 .037 0 .056-.002.386-.048.686-.283.85-.67l1.384-3.418v5.407c0 .19.068.363.194.5.136.15.327.23.537.23h.117c.208 0 .4-.08.537-.23.127-.138.195-.312.195-.5V20.05c0-.415-.174-.653-.318-.78-.19-.165-.424-.254-.676-.254M18.274 19.056h-4.582c-.326 0-.578.092-.748.27-.163.174-.247.411-.247.71v8.156c0 .263.062.486.186.66.157.22.426.332.795.332h4.596c.195 0 .374-.075.514-.215s.217-.32.217-.516v-.118c0-.209-.082-.399-.232-.536-.138-.127-.312-.194-.499-.194h-3.982V24.67c.093.04.2.062.318.062h2.811c.436 0 .73-.294.73-.73v-.118c0-.189-.067-.36-.195-.5-.136-.15-.326-.231-.535-.231H14.61c-.114 0-.223.023-.318.07v-2.588h3.982c.188 0 .36-.068.5-.195.15-.136.23-.326.23-.536v-.118c0-.195-.075-.374-.215-.515-.141-.14-.32-.216-.515-.216M29.693 19.016c-.238 0-.68.088-.95.665l-.008.023-1.968 4.896-2.08-4.907c-.255-.588-.707-.677-.955-.677-.606 0-.98.397-.98 1.034v8.403c0 .19.067.363.195.5.135.15.32.23.522.23h.132c.192 0 .377-.076.515-.214.14-.141.215-.32.215-.516v-5.555l1.519 3.587c.18.42.523.651.968.651.018 0 .036 0 .056-.002.384-.048.686-.283.85-.67l1.383-3.418v5.407c0 .19.067.363.195.5.136.15.327.23.536.23h.119c.208 0 .399-.08.534-.23.128-.138.197-.312.197-.5V20.05c0-.415-.175-.653-.318-.78-.188-.165-.424-.254-.677-.254M40.319 25.38c0 .389-.054.732-.16 1.019-.104.279-.227.49-.363.63-.143.148-.314.268-.505.356-.209.096-.394.16-.55.188-.334.06-.666.06-1.005 0-.156-.028-.338-.092-.547-.188-.194-.09-.367-.21-.515-.359-.14-.14-.263-.35-.365-.627-.108-.287-.16-.63-.16-1.019v-2.572c0-.389.052-.728.159-1.011.102-.27.222-.474.355-.605.142-.139.314-.253.512-.34.21-.093.395-.151.547-.176.168-.025.34-.04.51-.04.172 0 .34.015.503.04.149.025.332.083.544.176.197.087.37.201.511.34.135.134.257.337.364.609.11.282.165.62.165 1.007v2.572zm.625-5.318c-.267-.26-.582-.473-.942-.636-.348-.156-.669-.258-.953-.304-.533-.087-1.094-.084-1.614-.008-.277.04-.588.135-.943.288-.366.158-.687.369-.953.624-.28.27-.507.633-.697 1.112-.182.465-.274 1.009-.274 1.616v2.666c0 .59.09 1.125.266 1.592.182.477.41.856.684 1.128.263.266.624.508 1.067.722.46.222 1.016.336 1.655.336.606 0 1.192-.125 1.744-.37.354-.162.671-.38.94-.645.279-.273.515-.655.7-1.137.183-.473.275-1.02.275-1.626v-2.666c0-.588-.09-1.121-.268-1.58-.182-.468-.413-.842-.687-1.112zM52.509 27.947l-2.312-3.042c.66-.118 1.182-.408 1.553-.861.48-.59.724-1.27.724-2.024 0-1.351-.633-2.964-3.646-2.964h-1.8c-.366 0-.627.097-.796.296-.152.18-.224.43-.224.789v8.313c0 .19.069.362.196.5.135.148.327.23.535.23h.132c.209 0 .399-.081.535-.23.128-.14.196-.313.196-.5v-7.806h1.213c1.831 0 2.066.74 2.066 1.384 0 .313-.096.612-.294.917-.074.116-.203.218-.381.301-.2.092-.45.138-.75.138h-.576c-.564 0-.928.35-.928.89 0 .19.072.382.24.625l3.033 3.99c.14.188.362.291.622.291h.263c.384 0 .653-.273.653-.665 0-.163-.077-.309-.236-.55-.007-.006-.011-.015-.018-.022M57.879 19.056h-.118c-.21 0-.4.083-.536.23-.127.14-.195.313-.195.501v8.666c0 .19.068.363.194.5.136.15.326.23.537.23h.118c.195 0 .372-.074.515-.214.142-.14.215-.32.215-.516v-8.666c0-.195-.073-.374-.215-.515-.143-.14-.32-.216-.515-.216M65.809 24.203l.847-2.4.844 2.4h-1.691zm1.788-4.482c-.154-.431-.505-.68-.96-.68-.46 0-.807.249-.946.668l-3.01 8.506c-.024.074-.037.154-.037.24 0 .437.293.729.73.729h.158c.3 0 .545-.162.675-.443l.016-.04 1.043-2.957c.077.026.159.04.25.04h2.27c.089 0 .173-.015.252-.044l1.042 2.962c.003.012.01.027.015.04.13.282.376.442.674.442h.159c.436 0 .728-.292.728-.73 0-.085-.011-.165-.039-.249l-3.02-8.484z" transform="translate(4 3.5)"/>
        <path fill="#FEFEFE" d="M38.203 23.113c-.576 0-1.044.467-1.044 1.043 0 .577.468 1.043 1.044 1.043.575 0 1.042-.466 1.042-1.043 0-.576-.467-1.043-1.042-1.043" transform="translate(4 3.5)"/>
    </g>
</svg>
